<svg width="1022" height="100" viewBox="0 0 1022 100" fill="none" xmlns="http://www.w3.org/2000/svg">
<g clip-path="url(#clip0_2_3299)">
<g clip-path="url(#clip1_2_3299)">
<path d="M155.857 53.0003H145.232H144.862C144.764 53.0003 144.666 53 144.569 52.9993C144.057 53.0084 143.546 52.9701 143.042 52.885C142.697 52.8202 142.362 52.7074 142.049 52.5498C141.426 52.2339 140.92 51.728 140.604 51.1053C140.446 50.7916 140.334 50.4573 140.269 50.1122C140.178 49.5592 140.14 48.999 140.154 48.4388V48.1455C140.154 48.0714 140.154 47.9967 140.154 47.9216V15.079C140.154 15.0038 140.154 14.9292 140.154 14.8551C140.154 14.7566 140.154 14.6588 140.154 14.5618C140.14 14.0016 140.178 13.4414 140.269 12.8884C140.334 12.5433 140.446 12.209 140.604 11.8953C140.92 11.2728 141.426 10.7669 142.048 10.451C142.362 10.2934 142.697 10.1806 143.042 10.1158C143.396 10.0513 143.755 10.0157 144.115 10.0093C144.377 10.0012 144.707 10.0003 145.006 10.0003H145.232H154.105C154.099 10.1895 154.091 10.3777 154.091 10.5693V10.7215V10.8643V11.0003H145.232H145.123H145.006C144.717 11.0003 144.399 11.0009 144.146 11.0088C143.84 11.0133 143.535 11.0429 143.233 11.0973C142.979 11.1442 142.733 11.2266 142.503 11.3422C142.068 11.5621 141.715 11.915 141.495 12.3494C141.38 12.5801 141.297 12.8258 141.251 13.0794C141.173 13.5705 141.14 14.0678 141.154 14.5649V14.8549V15.0788V47.9216V48.1421V48.438C141.14 48.934 141.173 49.4302 141.251 49.9203C141.297 50.1743 141.38 50.4205 141.495 50.6514C141.715 51.0859 142.068 51.4387 142.502 51.6585C142.733 51.774 142.979 51.8564 143.233 51.9033C143.677 51.9757 144.126 52.0077 144.576 51.9991L144.863 52.0003H145.232H154.923C155.169 52.3893 155.486 52.7285 155.857 53.0003H155.857ZM152.74 11.5866C152.982 11.5866 153.215 11.6829 153.386 11.8542C153.557 12.0256 153.654 12.258 153.654 12.5003C153.654 12.7426 153.557 12.975 153.386 13.1464C153.215 13.3177 152.982 13.414 152.74 13.414H148.567C148.325 13.414 148.092 13.3177 147.921 13.1464C147.75 12.975 147.654 12.7426 147.654 12.5003C147.654 12.258 147.75 12.0256 147.921 11.8542C148.092 11.6829 148.325 11.5866 148.567 11.5866H152.74ZM152.792 12.0503C152.703 12.0503 152.616 12.0767 152.542 12.1261C152.468 12.1756 152.41 12.2459 152.376 12.3281C152.342 12.4103 152.333 12.5008 152.351 12.5881C152.368 12.6754 152.411 12.7556 152.474 12.8185C152.537 12.8814 152.617 12.9243 152.704 12.9417C152.792 12.959 152.882 12.9501 152.964 12.9161C153.047 12.882 153.117 12.8243 153.166 12.7503C153.216 12.6763 153.242 12.5893 153.242 12.5003C153.242 12.381 153.195 12.2665 153.11 12.1821C153.026 12.0977 152.911 12.0503 152.792 12.0503ZM169.653 8.50031C169.653 8.74261 169.557 8.97498 169.386 9.14633C169.214 9.31767 168.982 9.41396 168.74 9.41401H164.567C164.325 9.41401 164.092 9.31774 163.921 9.14639C163.75 8.97504 163.654 8.74264 163.654 8.50031C163.654 8.25798 163.75 8.02558 163.921 7.85422C164.092 7.68287 164.325 7.58661 164.567 7.58661H168.74C168.982 7.58663 169.215 7.68291 169.386 7.85426C169.557 8.02561 169.653 8.258 169.653 8.50031ZM169.242 8.50031C169.242 8.41131 169.215 8.3243 169.166 8.2503C169.117 8.1763 169.046 8.11862 168.964 8.08456C168.882 8.0505 168.791 8.04159 168.704 8.05895C168.617 8.07632 168.537 8.11918 168.474 8.18211C168.411 8.24504 168.368 8.32523 168.35 8.41252C168.333 8.49981 168.342 8.59029 168.376 8.67252C168.41 8.75474 168.468 8.82502 168.542 8.87447C168.616 8.92392 168.703 8.95031 168.792 8.95031C168.911 8.95031 169.026 8.9029 169.11 8.81851C169.194 8.73412 169.242 8.61966 169.242 8.50031ZM178.153 10.8669V48.1337C178.153 48.2325 178.153 48.3304 178.153 48.4277C178.167 48.9892 178.128 49.5509 178.038 50.1052C177.973 50.4511 177.86 50.7861 177.702 51.1006C177.385 51.7249 176.878 52.2321 176.253 52.5485C175.939 52.7065 175.604 52.8197 175.258 52.8845C174.903 52.9492 174.543 52.9849 174.182 52.9913C173.92 52.9994 173.59 53.0003 173.291 53.0003H173.062H160.245H159.873C159.775 53.0003 159.677 53 159.579 52.9993C159.156 52.9997 158.733 52.9721 158.313 52.9169C158.225 52.9046 158.135 52.9015 158.049 52.8847C157.703 52.8199 157.368 52.7067 157.054 52.5487C156.772 52.4038 156.513 52.2191 156.285 52.0003C156.262 51.979 156.236 51.962 156.214 51.9403C155.968 51.6943 155.763 51.411 155.605 51.101C155.447 50.7865 155.334 50.4515 155.269 50.1056C155.178 49.5512 155.139 48.9894 155.153 48.4277C155.153 48.3304 155.153 48.2325 155.153 48.1337V10.8669C155.153 10.768 155.153 10.6701 155.153 10.5728C155.154 10.381 155.161 10.1909 155.166 10.0004C155.17 9.62987 155.205 9.26029 155.269 8.89531C155.334 8.54955 155.447 8.21462 155.605 7.90031C155.922 7.27578 156.429 6.76845 157.053 6.45211C157.368 6.29407 157.703 6.18096 158.049 6.11611C158.404 6.0514 158.764 6.01569 159.125 6.00931C159.387 6.00121 159.717 6.00031 160.016 6.00031H160.245H173.062H173.249H173.433C173.532 6.00031 173.63 6.00031 173.728 6.00131C174.24 5.99221 174.752 6.03057 175.258 6.11591C175.603 6.18077 175.939 6.29387 176.253 6.45191C176.878 6.76822 177.385 7.27563 177.702 7.90031C177.86 8.21475 177.973 8.54977 178.038 8.89561C178.129 9.44983 178.167 10.0114 178.153 10.5728V10.8669ZM177.153 10.8669V10.7181V10.5753C177.167 10.0773 177.135 9.57915 177.057 9.08711C177.01 8.83243 176.927 8.58565 176.811 8.35401C176.59 7.91789 176.236 7.56369 175.8 7.34311C175.569 7.22727 175.322 7.14463 175.067 7.09761C174.622 7.02502 174.172 6.99285 173.722 7.00151L173.433 7.00031H173.249H173.157H160.245H160.135H160.016C159.727 7.00031 159.409 7.00101 159.156 7.00881C158.849 7.01327 158.542 7.04297 158.24 7.09761C157.985 7.14466 157.739 7.22734 157.507 7.34321C157.071 7.5635 156.717 7.91739 156.496 8.35321C156.38 8.58508 156.298 8.83214 156.251 9.08711C156.198 9.38881 156.17 9.69416 156.166 10.0003C156.16 10.1873 156.155 10.3735 156.154 10.5761V10.724V10.8692V48.1337V48.2765V48.4252C156.14 48.9232 156.173 49.4213 156.251 49.9133C156.298 50.168 156.38 50.4149 156.496 50.6466C156.717 51.0826 157.071 51.4367 157.507 51.6573C157.738 51.7732 157.985 51.8559 158.24 51.903C158.259 51.9068 158.281 51.9066 158.3 51.9101C158.725 51.9752 159.155 52.0049 159.586 51.9991L159.874 52.0001H160.244H173.173H173.292C173.58 52.0001 173.898 51.9994 174.152 51.9916C174.459 51.987 174.765 51.9573 175.067 51.9028C175.322 51.8558 175.569 51.7731 175.8 51.6572C176.236 51.4365 176.59 51.0824 176.81 50.6466C176.926 50.4148 177.009 50.1677 177.056 49.9128C177.134 49.4207 177.167 48.9224 177.153 48.4243V48.2825V48.1312V10.8669Z" fill="#1D1D1F"/>
</g>
<path d="M122.579 68.4648C122.966 68.4648 123.282 68.1484 123.282 67.7617C123.282 67.375 122.966 67.0586 122.579 67.0586C122.192 67.0586 121.876 67.375 121.876 67.7617C121.876 68.1484 122.192 68.4648 122.579 68.4648ZM122.063 76H123.083V69.6836H122.063V76ZM125.013 76H126.068V72.9824H128.201C129.789 72.9824 130.914 71.8633 130.914 70.2578V70.2461C130.914 68.6406 129.789 67.5449 128.201 67.5449H125.013V76ZM127.931 68.4824C129.138 68.4824 129.836 69.1445 129.836 70.2578V70.2695C129.836 71.3828 129.138 72.0449 127.931 72.0449H126.068V68.4824H127.931ZM132.452 76H133.472V72.2617C133.472 71.1543 134.11 70.4746 135.118 70.4746C136.126 70.4746 136.595 71.0195 136.595 72.1562V76H137.614V71.9102C137.614 70.4102 136.823 69.5723 135.405 69.5723C134.474 69.5723 133.882 69.9648 133.565 70.6328H133.472V67.1758H132.452V76ZM141.936 76.1113C143.734 76.1113 144.848 74.8691 144.848 72.8477V72.8359C144.848 70.8086 143.734 69.5723 141.936 69.5723C140.137 69.5723 139.023 70.8086 139.023 72.8359V72.8477C139.023 74.8691 140.137 76.1113 141.936 76.1113ZM141.936 75.209C140.74 75.209 140.066 74.3359 140.066 72.8477V72.8359C140.066 71.3418 140.74 70.4746 141.936 70.4746C143.131 70.4746 143.805 71.3418 143.805 72.8359V72.8477C143.805 74.3359 143.131 75.209 141.936 75.209ZM146.31 76H147.329V72.2617C147.329 71.1543 147.968 70.4746 148.976 70.4746C149.984 70.4746 150.452 71.0195 150.452 72.1562V76H151.472V71.9102C151.472 70.4102 150.681 69.5723 149.263 69.5723C148.331 69.5723 147.739 69.9648 147.423 70.6328H147.329V69.6836H146.31V76ZM155.776 76.1113C157.264 76.1113 158.166 75.2676 158.383 74.4121L158.395 74.3652H157.375L157.352 74.418C157.182 74.7988 156.655 75.2031 155.799 75.2031C154.674 75.2031 153.953 74.4414 153.924 73.1348H158.471V72.7363C158.471 70.8496 157.428 69.5723 155.711 69.5723C153.994 69.5723 152.881 70.9082 152.881 72.8594V72.8652C152.881 74.8457 153.971 76.1113 155.776 76.1113ZM155.705 70.4805C156.637 70.4805 157.328 71.0723 157.434 72.3203H153.942C154.053 71.1191 154.768 70.4805 155.705 70.4805ZM165.251 76H166.305V67.5449H165.256L163.006 69.1621V70.2754L165.157 68.7168H165.251V76ZM172.49 76H173.521V74.248H174.722V73.3047H173.521V67.5449H171.992C170.808 69.3086 169.513 71.3711 168.371 73.2871V74.248H172.49V76ZM169.449 73.3105V73.2402C170.369 71.6875 171.476 69.9414 172.425 68.5234H172.496V73.3105H169.449ZM179.621 76H180.676V72.9824H182.808C184.396 72.9824 185.521 71.8633 185.521 70.2578V70.2461C185.521 68.6406 184.396 67.5449 182.808 67.5449H179.621V76ZM182.539 68.4824C183.746 68.4824 184.443 69.1445 184.443 70.2578V70.2695C184.443 71.3828 183.746 72.0449 182.539 72.0449H180.676V68.4824H182.539ZM187.001 76H188.021V72.0859C188.021 71.1602 188.712 70.5449 189.685 70.5449C189.907 70.5449 190.101 70.5684 190.312 70.6035V69.6133C190.212 69.5957 189.995 69.5723 189.802 69.5723C188.946 69.5723 188.354 69.959 188.114 70.6211H188.021V69.6836H187.001V76ZM193.871 76.1113C195.67 76.1113 196.783 74.8691 196.783 72.8477V72.8359C196.783 70.8086 195.67 69.5723 193.871 69.5723C192.072 69.5723 190.959 70.8086 190.959 72.8359V72.8477C190.959 74.8691 192.072 76.1113 193.871 76.1113ZM193.871 75.209C192.676 75.209 192.002 74.3359 192.002 72.8477V72.8359C192.002 71.3418 192.676 70.4746 193.871 70.4746C195.067 70.4746 195.74 71.3418 195.74 72.8359V72.8477C195.74 74.3359 195.067 75.209 193.871 75.209Z" fill="#1D1D1F"/>
<path d="M149.784 90H150.654V84.5361H150.732L154.555 90H155.409V82.9541H154.54V88.4375H154.462L150.639 82.9541H149.784V90ZM159.167 90.0928C160.408 90.0928 161.16 89.3896 161.34 88.6768L161.35 88.6377H160.5L160.481 88.6816C160.339 88.999 159.9 89.3359 159.187 89.3359C158.249 89.3359 157.649 88.7012 157.624 87.6123H161.413V87.2803C161.413 85.708 160.544 84.6436 159.114 84.6436C157.683 84.6436 156.755 85.7568 156.755 87.3828V87.3877C156.755 89.0381 157.663 90.0928 159.167 90.0928ZM159.109 85.4004C159.885 85.4004 160.461 85.8936 160.549 86.9336H157.639C157.732 85.9326 158.328 85.4004 159.109 85.4004ZM163.667 90H164.517L165.689 85.9277H165.767L166.944 90H167.798L169.273 84.7363H168.428L167.393 88.9453H167.315L166.138 84.7363H165.333L164.156 88.9453H164.078L163.042 84.7363H162.193L163.667 90Z" fill="#BF4800"/>
<g clip-path="url(#clip2_2_3299)">
<path d="M260.105 52H251.248H250.92C250.481 52.0109 250.042 51.9818 249.608 51.913C249.383 51.8713 249.164 51.7981 248.958 51.6955C248.575 51.5012 248.263 51.1894 248.068 50.8055C247.966 50.6001 247.893 50.3813 247.851 50.1555C247.81 49.9349 247.785 49.7116 247.777 49.4874C247.765 49.2339 247.764 48.9596 247.763 48.6984V14.2191C247.763 13.9581 247.765 13.6837 247.777 13.4291C247.785 13.2057 247.81 12.9831 247.851 12.7631C247.892 12.5372 247.966 12.3182 248.068 12.1125C248.263 11.7286 248.574 11.4168 248.958 11.2225C249.164 11.1198 249.383 11.0465 249.609 11.0048C249.882 10.9557 250.158 10.9289 250.435 10.9248C250.667 10.9176 250.958 10.9171 251.222 10.9171H251.629H252.643C252.682 10.9171 252.721 10.9248 252.758 10.9398C252.794 10.9549 252.827 10.977 252.855 11.0048C252.883 11.0327 252.905 11.0658 252.92 11.1022C252.935 11.1387 252.943 11.1777 252.943 11.2171V11.6071C252.944 11.8726 253.049 12.1271 253.237 12.3145C253.426 12.502 253.68 12.607 253.946 12.6066H259.264V10.8353V10.4364C259.264 10.2646 259.27 10.1747 259.274 10.0001H251.429L251.222 10C250.947 10 250.644 10.0007 250.403 10.0082C250.074 9.98706 249.744 9.99221 249.416 10.0236C249.099 10.0831 248.792 10.1868 248.504 10.3316C247.932 10.6217 247.467 11.0866 247.177 11.6588C247.032 11.9471 246.928 12.2543 246.869 12.5713C246.819 12.8388 246.789 13.1095 246.778 13.3813C246.765 13.6498 246.763 13.9407 246.763 14.2173V14.5843V48.3331V48.7003C246.763 48.9767 246.765 49.2676 246.778 49.5362C246.789 49.8081 246.819 50.0788 246.869 50.3462C246.928 50.6633 247.032 50.9705 247.177 51.2588C247.467 51.831 247.932 52.2958 248.504 52.586C248.792 52.7308 249.099 52.8345 249.416 52.894C249.912 52.976 250.414 53.0115 250.915 53C251.025 53 251.136 53 251.248 53H261.048C260.675 52.7277 260.355 52.3887 260.105 52H260.105ZM255.141 10.4194C255.141 10.3842 255.155 10.3505 255.18 10.3256C255.205 10.3007 255.239 10.2867 255.274 10.2866H258.359C258.394 10.2867 258.428 10.3007 258.453 10.3256C258.478 10.3504 258.492 10.3842 258.492 10.4194V10.44C258.492 10.4753 258.478 10.5091 258.453 10.534C258.428 10.5589 258.394 10.5729 258.359 10.5729H255.274C255.239 10.5729 255.205 10.5589 255.18 10.534C255.155 10.5091 255.141 10.4753 255.141 10.44V10.4194ZM253.605 11.3C253.65 11.2265 253.714 11.1667 253.79 11.1273C253.866 11.0879 253.952 11.0704 254.038 11.0767C254.15 11.0861 254.255 11.1374 254.332 11.2205C254.408 11.3035 254.451 11.4123 254.451 11.5252C254.451 11.6381 254.408 11.7468 254.332 11.8299C254.255 11.913 254.15 11.9643 254.038 11.9736C253.956 11.9816 253.873 11.9666 253.798 11.9305C253.724 11.8944 253.661 11.8384 253.616 11.7688C253.571 11.6992 253.547 11.6186 253.545 11.5359C253.543 11.4532 253.564 11.3716 253.605 11.3ZM282.763 10.688C282.762 10.3862 282.76 10.0687 282.746 9.77574C282.735 9.4791 282.701 9.18369 282.647 8.89184C282.582 8.54633 282.469 8.21163 282.311 7.89754C281.996 7.27392 281.489 6.76733 280.865 6.45144C280.551 6.29359 280.216 6.18059 279.871 6.11574C279.326 6.026 278.774 5.98743 278.221 6.00054C278.076 6.00054 277.93 6.00054 277.781 6.00054H265.848H265.621C265.322 6.00054 264.992 6.00144 264.729 6.00954C264.369 6.01598 264.009 6.05166 263.654 6.11624C263.309 6.18105 262.974 6.29405 262.66 6.45194C262.036 6.76783 261.53 7.27442 261.214 7.89804C261.056 8.21213 260.943 8.54683 260.878 8.89234C260.824 9.18417 260.791 9.47959 260.779 9.77624C260.773 9.90204 260.775 10.0362 260.772 10.1679C260.769 10.3428 260.763 10.5163 260.763 10.6885V11.0857V47.9157C260.763 48.0499 260.763 48.1823 260.763 48.3129C260.763 48.6147 260.765 48.9322 260.779 49.2251C260.791 49.5219 260.824 49.8173 260.878 50.1092C260.943 50.4547 261.056 50.7894 261.214 51.1034C261.371 51.4132 261.576 51.6961 261.822 51.9418C261.849 51.9693 261.882 51.9908 261.91 52.0173C262.134 52.2289 262.387 52.4082 262.66 52.5497C262.974 52.7075 263.309 52.8205 263.655 52.8852C263.973 52.9426 264.296 52.9757 264.619 52.9842C264.846 52.9935 265.075 52.9994 265.304 53.0003C265.411 53.0008 265.519 53.0008 265.628 53.0003H277.678H277.906C278.205 53.0003 278.534 52.9994 278.796 52.9913C279.157 52.985 279.517 52.9493 279.871 52.8846C280.217 52.8198 280.552 52.7069 280.866 52.5491C281.489 52.233 281.996 51.7264 282.312 51.1028C282.47 50.7888 282.583 50.4541 282.647 50.1086C282.702 49.8167 282.735 49.5213 282.747 49.2245C282.761 48.9316 282.762 48.6145 282.763 48.3123C282.763 48.1815 282.763 48.0491 282.763 47.9151V11.0852C282.763 10.951 282.763 10.8189 282.763 10.688ZM270.034 6.59284C270.034 6.55763 270.048 6.52387 270.073 6.49897C270.098 6.47407 270.131 6.46007 270.167 6.46004H273.251C273.286 6.4601 273.32 6.4741 273.345 6.499C273.37 6.52389 273.384 6.55764 273.384 6.59284V6.61364C273.384 6.64887 273.37 6.68264 273.345 6.70755C273.32 6.73247 273.286 6.74649 273.251 6.74654H270.167C270.131 6.74652 270.098 6.7325 270.073 6.70758C270.048 6.68266 270.034 6.64887 270.034 6.61364V6.59284ZM268.548 7.43054C268.589 7.36222 268.647 7.30566 268.717 7.26628C268.786 7.22689 268.864 7.20602 268.944 7.20564L268.98 7.20724C269.093 7.21661 269.198 7.26791 269.274 7.35097C269.351 7.43404 269.393 7.54281 269.393 7.65569C269.393 7.76858 269.351 7.87735 269.274 7.96041C269.198 8.04348 269.093 8.09478 268.98 8.10414L268.945 8.10574C268.865 8.10701 268.786 8.08712 268.717 8.04812C268.648 8.00912 268.59 7.95241 268.549 7.88376C268.509 7.81511 268.488 7.73698 268.487 7.65736C268.487 7.57774 268.508 7.49947 268.548 7.43054H268.548ZM281.763 47.9148V48.3104C281.763 48.5967 281.759 48.8979 281.746 49.1764C281.737 49.4248 281.71 49.6721 281.664 49.9164C281.617 50.1708 281.535 50.4173 281.419 50.6486C281.199 51.0836 280.846 51.4368 280.411 51.6567C280.18 51.7724 279.933 51.855 279.679 51.9018C279.377 51.9564 279.071 51.9861 278.765 51.9905C278.512 51.9983 278.193 52.0005 277.905 52.0005H265.628L265.307 52C265.067 51.9991 264.831 51.9933 264.602 51.9827C264.348 51.9739 264.096 51.9469 263.846 51.9017C263.592 51.8548 263.346 51.7724 263.114 51.6567C262.679 51.4365 262.326 51.0832 262.106 50.6481C261.99 50.4168 261.908 50.1703 261.861 49.9158C261.815 49.6715 261.788 49.4242 261.779 49.1758C261.766 48.8979 261.763 48.5967 261.763 48.31V47.8714V11.0852V10.69C261.763 10.5174 261.77 10.343 261.773 10.1678C261.775 10.0524 261.774 9.93454 261.779 9.82394C261.788 9.5756 261.816 9.32825 261.861 9.08394C261.908 8.82949 261.99 8.58294 262.106 8.35164C262.326 7.91666 262.679 7.56343 263.114 7.34364C263.346 7.22798 263.592 7.14544 263.846 7.09844C264.148 7.04404 264.454 7.01441 264.76 7.00984C265.014 7.00204 265.332 7.00134 265.621 7.00134H265.739H266.589V7.00194H267.534C267.573 7.00184 267.612 7.00952 267.649 7.02455C267.685 7.03958 267.719 7.06166 267.746 7.08953C267.774 7.1174 267.797 7.1505 267.812 7.18695C267.827 7.2234 267.835 7.26248 267.835 7.30194V7.69194C267.835 7.82343 267.861 7.95361 267.911 8.07504C267.962 8.19647 268.036 8.30677 268.129 8.39964C268.222 8.4925 268.332 8.56612 268.454 8.61627C268.575 8.66643 268.706 8.69214 268.837 8.69194H274.637C274.9 8.69231 275.153 8.5889 275.341 8.40412C275.529 8.21934 275.636 7.96807 275.639 7.70474L275.644 7.29894C275.646 7.21997 275.678 7.14462 275.734 7.08919C275.79 7.03376 275.866 7.00271 275.945 7.00274H276.962V7.00124H277.781H278.217C278.706 6.98908 279.196 7.02141 279.679 7.09784C279.933 7.14478 280.18 7.22733 280.411 7.34304C280.846 7.56309 281.199 7.91646 281.419 8.35154C281.535 8.58265 281.617 8.82895 281.664 9.08314C281.71 9.32748 281.737 9.57481 281.746 9.82314C281.759 10.1011 281.762 10.4024 281.763 10.689V11.1276V47.9148Z" fill="#1D1D1F"/>
</g>
<path d="M239.192 68.4648C239.579 68.4648 239.895 68.1484 239.895 67.7617C239.895 67.375 239.579 67.0586 239.192 67.0586C238.806 67.0586 238.489 67.375 238.489 67.7617C238.489 68.1484 238.806 68.4648 239.192 68.4648ZM238.677 76H239.696V69.6836H238.677V76ZM241.627 76H242.682V72.9824H244.814C246.402 72.9824 247.527 71.8633 247.527 70.2578V70.2461C247.527 68.6406 246.402 67.5449 244.814 67.5449H241.627V76ZM244.545 68.4824C245.752 68.4824 246.449 69.1445 246.449 70.2578V70.2695C246.449 71.3828 245.752 72.0449 244.545 72.0449H242.682V68.4824H244.545ZM249.066 76H250.085V72.2617C250.085 71.1543 250.724 70.4746 251.732 70.4746C252.739 70.4746 253.208 71.0195 253.208 72.1562V76H254.228V71.9102C254.228 70.4102 253.437 69.5723 252.019 69.5723C251.087 69.5723 250.495 69.9648 250.179 70.6328H250.085V67.1758H249.066V76ZM258.549 76.1113C260.348 76.1113 261.461 74.8691 261.461 72.8477V72.8359C261.461 70.8086 260.348 69.5723 258.549 69.5723C256.75 69.5723 255.637 70.8086 255.637 72.8359V72.8477C255.637 74.8691 256.75 76.1113 258.549 76.1113ZM258.549 75.209C257.354 75.209 256.68 74.3359 256.68 72.8477V72.8359C256.68 71.3418 257.354 70.4746 258.549 70.4746C259.744 70.4746 260.418 71.3418 260.418 72.8359V72.8477C260.418 74.3359 259.744 75.209 258.549 75.209ZM262.923 76H263.943V72.2617C263.943 71.1543 264.581 70.4746 265.589 70.4746C266.597 70.4746 267.066 71.0195 267.066 72.1562V76H268.085V71.9102C268.085 70.4102 267.294 69.5723 265.876 69.5723C264.945 69.5723 264.353 69.9648 264.037 70.6328H263.943V69.6836H262.923V76ZM272.389 76.1113C273.877 76.1113 274.78 75.2676 274.997 74.4121L275.008 74.3652H273.989L273.965 74.418C273.795 74.7988 273.268 75.2031 272.413 75.2031C271.288 75.2031 270.567 74.4414 270.538 73.1348H275.084V72.7363C275.084 70.8496 274.042 69.5723 272.325 69.5723C270.608 69.5723 269.495 70.9082 269.495 72.8594V72.8652C269.495 74.8457 270.584 76.1113 272.389 76.1113ZM272.319 70.4805C273.251 70.4805 273.942 71.0723 274.047 72.3203H270.555C270.667 71.1191 271.381 70.4805 272.319 70.4805ZM281.864 76H282.919V67.5449H281.87L279.62 69.1621V70.2754L281.77 68.7168H281.864V76ZM289.103 76H290.135V74.248H291.336V73.3047H290.135V67.5449H288.605C287.422 69.3086 286.127 71.3711 284.984 73.2871V74.248H289.103V76ZM286.062 73.3105V73.2402C286.982 71.6875 288.09 69.9414 289.039 68.5234H289.109V73.3105H286.062Z" fill="#1D1D1F"/>
<path d="M255.394 90H256.263V84.5361H256.341L260.164 90H261.019V82.9541H260.15V88.4375H260.072L256.248 82.9541H255.394V90ZM264.777 90.0928C266.017 90.0928 266.769 89.3896 266.95 88.6768L266.959 88.6377H266.11L266.09 88.6816C265.949 88.999 265.509 89.3359 264.796 89.3359C263.859 89.3359 263.258 88.7012 263.234 87.6123H267.023V87.2803C267.023 85.708 266.154 84.6436 264.723 84.6436C263.292 84.6436 262.365 85.7568 262.365 87.3828V87.3877C262.365 89.0381 263.273 90.0928 264.777 90.0928ZM264.718 85.4004C265.495 85.4004 266.071 85.8936 266.159 86.9336H263.248C263.341 85.9326 263.937 85.4004 264.718 85.4004ZM269.277 90H270.126L271.298 85.9277H271.376L272.553 90H273.408L274.882 84.7363H274.038L273.002 88.9453H272.924L271.748 84.7363H270.942L269.765 88.9453H269.687L268.652 84.7363H267.802L269.277 90Z" fill="#BF4800"/>
<g clip-path="url(#clip3_2_3299)">
<path d="M355.342 52.5004C355.208 52.3433 355.086 52.1761 354.978 52.0004H345.484C345.404 52.0004 345.108 52.0004 345.024 52.0004C344.579 52.0177 344.135 51.9799 343.7 51.8877C343.364 51.8073 343.059 51.6325 342.82 51.384C342.582 51.1291 342.421 50.8126 342.354 50.4704C342.276 50.0207 342.246 49.5642 342.263 49.1082V18.2917C342.263 18.1951 342.263 17.9791 342.263 17.8798C342.242 17.4002 342.279 16.9199 342.373 16.4491C342.457 16.0883 342.65 15.762 342.926 15.5152C343.069 15.3892 343.231 15.2871 343.406 15.2129C343.58 15.1407 343.762 15.09 343.948 15.062C344.183 15.0267 344.421 15.0077 344.659 15.005C344.817 15.0012 345.001 15.0006 345.177 15.0006H346.46C346.509 14.9984 346.559 15.0009 346.608 15.0082C346.656 15.0144 346.702 15.0363 346.737 15.0706C346.772 15.1049 346.795 15.1497 346.802 15.1982C346.813 15.2507 346.812 15.5618 346.813 15.6082C346.813 15.7194 346.822 15.8304 346.839 15.9402C346.858 16.0487 346.895 16.1532 346.949 16.249C347.036 16.4008 347.161 16.527 347.312 16.6149C347.43 16.6818 347.561 16.7243 347.695 16.7398C347.831 16.7533 347.967 16.7576 348.104 16.7528H353.528C353.779 16.7793 354.033 16.7381 354.263 16.6335V14.0004H345.484H345.199C345.008 14.0004 344.807 14.0011 344.635 14.0053C344.351 14.0094 344.068 14.0328 343.788 14.0753C343.522 14.1163 343.262 14.1896 343.014 14.2935C342.74 14.4096 342.486 14.5694 342.263 14.7666C341.837 15.1465 341.538 15.647 341.404 16.2015C341.287 16.7573 341.24 17.3255 341.263 17.893V18.2917V49.1082C341.245 49.6365 341.283 50.1653 341.377 50.6854C341.483 51.2057 341.732 51.6862 342.096 52.0732C342.463 52.4559 342.932 52.7269 343.446 52.8548C343.963 52.9693 344.491 53.0182 345.019 53.0004C345.112 53.0004 345.388 53.0009 345.484 53.0004H355.843C355.705 52.8878 355.574 52.7661 355.452 52.6363C355.412 52.5934 355.38 52.5447 355.342 52.5004ZM347.961 16.0367C347.887 16.0421 347.812 16.0267 347.745 15.9923C347.679 15.9578 347.623 15.9055 347.585 15.8413C347.552 15.7811 347.535 15.7136 347.535 15.6451C347.535 15.5765 347.552 15.5091 347.585 15.4488C347.623 15.3847 347.679 15.3326 347.745 15.2982C347.812 15.2637 347.886 15.2484 347.961 15.2539C348.059 15.263 348.149 15.3082 348.215 15.3806C348.281 15.453 348.318 15.5474 348.318 15.6453C348.318 15.7433 348.281 15.8377 348.215 15.9101C348.149 15.9825 348.059 16.0276 347.961 16.0367H347.961ZM349.199 14.3767H352.286C352.319 14.3768 352.351 14.3899 352.374 14.4132C352.398 14.4365 352.411 14.468 352.411 14.501V14.5019V14.5204C352.411 14.5537 352.398 14.5855 352.374 14.609C352.351 14.6325 352.319 14.6457 352.286 14.6457H349.199C349.166 14.6457 349.134 14.6325 349.111 14.609C349.087 14.5855 349.074 14.5536 349.074 14.5204V14.5015V14.5005C349.074 14.4675 349.088 14.436 349.111 14.4127C349.134 14.3895 349.166 14.3764 349.199 14.3764V14.3767ZM377.263 13.392C377.283 12.7959 377.241 12.1993 377.136 11.612C377.02 11.0275 376.746 10.486 376.343 10.0469C375.939 9.6167 375.421 9.31073 374.85 9.16503C374.28 9.03604 373.695 8.98096 373.111 9.00113C373.001 9.00066 372.889 9.00043 372.777 9.00043H359.929H359.614C359.403 9.00043 359.18 9.00123 358.99 9.00603C358.676 9.01042 358.363 9.03665 358.053 9.08453C357.759 9.13085 357.472 9.21352 357.198 9.33063C356.894 9.46239 356.614 9.64282 356.368 9.86483C355.896 10.2967 355.566 10.8609 355.419 11.4837C355.29 12.1111 355.237 12.7519 355.263 13.392V15.0006V48.6091C355.242 49.2051 355.285 49.8015 355.389 50.3885C355.505 50.9733 355.78 51.515 356.183 51.9542C356.199 51.971 356.217 51.9842 356.233 52.0003C356.417 52.1905 356.625 52.3556 356.852 52.4914C357.11 52.6437 357.387 52.7597 357.676 52.8361C357.77 52.8609 357.865 52.8634 357.959 52.8812C358.44 52.9653 358.927 53.0052 359.415 53.0004C359.584 53.001 359.758 53.001 359.929 53.0004H372.967C373.562 53.0229 374.159 52.9766 374.744 52.8623C375.332 52.7323 375.869 52.4353 376.292 52.0071C376.714 51.5686 377.004 51.0202 377.128 50.4247C377.24 49.8263 377.285 49.2174 377.263 48.6091V13.8419C377.263 13.6914 377.263 13.5397 377.263 13.392ZM364.604 9.51203C364.604 9.47755 364.618 9.44448 364.642 9.4201C364.666 9.39573 364.699 9.38203 364.734 9.38203H367.793C367.827 9.38203 367.86 9.39573 367.884 9.4201C367.909 9.44448 367.923 9.47755 367.923 9.51203V9.53203C367.923 9.56651 367.909 9.59957 367.884 9.62395C367.86 9.64833 367.827 9.66203 367.793 9.66203H364.733C364.699 9.66203 364.666 9.64833 364.642 9.62395C364.617 9.59957 364.603 9.56651 364.603 9.53203L364.604 9.51203ZM363.033 10.345C363.073 10.278 363.131 10.2234 363.201 10.1875C363.27 10.1515 363.348 10.1355 363.426 10.1412C363.528 10.1507 363.623 10.1979 363.692 10.2736C363.761 10.3493 363.799 10.4481 363.799 10.5506C363.799 10.653 363.761 10.7518 363.692 10.8275C363.623 10.9033 363.528 10.9505 363.426 10.9599C363.348 10.9656 363.27 10.9495 363.2 10.9134C363.131 10.8774 363.073 10.8227 363.033 10.7556C362.998 10.6926 362.98 10.6219 362.98 10.5501C362.98 10.4783 362.998 10.4077 363.033 10.3446L363.033 10.345ZM376.263 13.7669V27.4757V48.6285C376.283 49.1562 376.246 49.6844 376.153 50.2041C376.07 50.6192 375.87 51.002 375.577 51.3078C375.287 51.601 374.917 51.803 374.514 51.8891C374.004 51.9839 373.485 52.0212 372.967 52.0004H359.927C359.786 52.0004 359.562 52.0004 359.419 52.0004C359.174 51.9993 358.955 51.9931 358.742 51.9814C358.47 51.9721 358.199 51.9349 357.934 51.8703C357.92 51.8666 357.909 51.8582 357.895 51.8542C357.521 51.7542 357.182 51.553 356.915 51.2726C356.634 50.9654 356.445 50.5864 356.367 50.1778C356.279 49.6599 356.244 49.1342 356.263 48.6091V15.0004C356.263 14.4863 356.263 13.8904 356.263 13.3768C356.239 12.8238 356.282 12.2699 356.389 11.7268C356.488 11.2966 356.714 10.9062 357.039 10.6068C357.204 10.4575 357.393 10.3362 357.597 10.2476C357.796 10.1633 358.004 10.1041 358.217 10.0712C358.482 10.0307 358.748 10.0089 359.015 10.0059C359.198 10.0013 359.412 10.0006 359.614 10.0006H359.78H359.929H361.88C361.935 9.99814 361.99 10.001 362.044 10.0091C362.099 10.016 362.149 10.0404 362.188 10.0786C362.227 10.1169 362.253 10.1668 362.261 10.2209C362.27 10.2754 362.275 10.3305 362.274 10.3857C362.274 10.5096 362.284 10.6333 362.302 10.7557C362.323 10.8768 362.365 10.9934 362.426 11.1003C362.523 11.2697 362.663 11.4106 362.831 11.5086C362.963 11.5833 363.108 11.6307 363.258 11.648C363.41 11.663 363.562 11.6679 363.714 11.6626H368.812C368.964 11.6679 369.116 11.663 369.268 11.648C369.418 11.6306 369.563 11.5832 369.695 11.5086C369.863 11.4106 370.003 11.2698 370.1 11.1004C370.161 10.9935 370.202 10.8769 370.223 10.7558C370.242 10.6334 370.252 10.5097 370.252 10.3858C370.251 10.3306 370.255 10.2754 370.265 10.221C370.273 10.167 370.298 10.117 370.337 10.0788C370.377 10.0405 370.427 10.0161 370.481 10.0092C370.536 10.001 370.591 9.99805 370.646 10.0004H372.777H373.106C373.605 9.98086 374.104 10.0245 374.591 10.1304C374.981 10.2285 375.335 10.4359 375.611 10.7282C375.892 11.0355 376.081 11.4144 376.159 11.8229C376.248 12.3413 376.282 12.8674 376.263 13.3929C376.263 13.4604 376.263 13.7044 376.263 13.7669Z" fill="#1D1D1F"/>
</g>
<path d="M333.8 68.4648C334.186 68.4648 334.503 68.1484 334.503 67.7617C334.503 67.375 334.186 67.0586 333.8 67.0586C333.413 67.0586 333.097 67.375 333.097 67.7617C333.097 68.1484 333.413 68.4648 333.8 68.4648ZM333.284 76H334.304V69.6836H333.284V76ZM336.234 76H337.289V72.9824H339.422C341.01 72.9824 342.135 71.8633 342.135 70.2578V70.2461C342.135 68.6406 341.01 67.5449 339.422 67.5449H336.234V76ZM339.152 68.4824C340.359 68.4824 341.057 69.1445 341.057 70.2578V70.2695C341.057 71.3828 340.359 72.0449 339.152 72.0449H337.289V68.4824H339.152ZM343.673 76H344.693V72.2617C344.693 71.1543 345.331 70.4746 346.339 70.4746C347.347 70.4746 347.816 71.0195 347.816 72.1562V76H348.835V71.9102C348.835 70.4102 348.044 69.5723 346.626 69.5723C345.694 69.5723 345.103 69.9648 344.786 70.6328H344.693V67.1758H343.673V76ZM353.157 76.1113C354.955 76.1113 356.069 74.8691 356.069 72.8477V72.8359C356.069 70.8086 354.955 69.5723 353.157 69.5723C351.358 69.5723 350.244 70.8086 350.244 72.8359V72.8477C350.244 74.8691 351.358 76.1113 353.157 76.1113ZM353.157 75.209C351.961 75.209 351.287 74.3359 351.287 72.8477V72.8359C351.287 71.3418 351.961 70.4746 353.157 70.4746C354.352 70.4746 355.026 71.3418 355.026 72.8359V72.8477C355.026 74.3359 354.352 75.209 353.157 75.209ZM357.531 76H358.55V72.2617C358.55 71.1543 359.189 70.4746 360.197 70.4746C361.204 70.4746 361.673 71.0195 361.673 72.1562V76H362.693V71.9102C362.693 70.4102 361.902 69.5723 360.484 69.5723C359.552 69.5723 358.96 69.9648 358.644 70.6328H358.55V69.6836H357.531V76ZM366.997 76.1113C368.485 76.1113 369.387 75.2676 369.604 74.4121L369.616 74.3652H368.596L368.573 74.418C368.403 74.7988 367.876 75.2031 367.02 75.2031C365.895 75.2031 365.174 74.4414 365.145 73.1348H369.692V72.7363C369.692 70.8496 368.649 69.5723 366.932 69.5723C365.215 69.5723 364.102 70.9082 364.102 72.8594V72.8652C364.102 74.8457 365.192 76.1113 366.997 76.1113ZM366.926 70.4805C367.858 70.4805 368.549 71.0723 368.655 72.3203H365.163C365.274 71.1191 365.989 70.4805 366.926 70.4805ZM376.471 76H377.526V67.5449H376.477L374.227 69.1621V70.2754L376.378 68.7168H376.471V76ZM382.726 76.1406C384.42 76.1406 385.662 75.0977 385.662 73.6855V73.6738C385.662 72.4727 384.824 71.7051 383.594 71.5996V71.5762C384.648 71.3535 385.387 70.6387 385.387 69.5957V69.584C385.387 68.3008 384.326 67.4043 382.715 67.4043C381.133 67.4043 380.043 68.3242 379.908 69.7012L379.902 69.7598H380.916L380.922 69.7012C381.01 68.8457 381.719 68.3184 382.715 68.3184C383.746 68.3184 384.326 68.8281 384.326 69.7129V69.7246C384.326 70.5684 383.623 71.1895 382.615 71.1895H381.601V72.0801H382.662C383.846 72.0801 384.59 72.6602 384.59 73.6973V73.709C384.59 74.6055 383.834 75.2266 382.726 75.2266C381.601 75.2266 380.834 74.6523 380.752 73.8203L380.746 73.7617H379.732L379.738 73.832C379.849 75.168 380.98 76.1406 382.726 76.1406Z" fill="#1D1D1F"/>
<g clip-path="url(#clip4_2_3299)">
<path d="M461.028 13H448.028C447.233 13.0024 446.472 13.3192 445.91 13.8813C445.348 14.4434 445.031 15.2051 445.028 16V50C445.031 50.7949 445.348 51.5566 445.91 52.1187C446.472 52.6808 447.233 52.9976 448.028 53H461.028C461.823 52.9976 462.585 52.6808 463.147 52.1187C463.709 51.5566 464.026 50.7949 464.028 50V16C464.026 15.2051 463.709 14.4434 463.147 13.8813C462.585 13.3192 461.823 13.0024 461.028 13ZM452.278 15.25H456.778C456.845 15.25 456.908 15.2763 456.955 15.3232C457.002 15.3701 457.028 15.4337 457.028 15.5C457.028 15.5663 457.002 15.6299 456.955 15.6768C456.908 15.7237 456.845 15.75 456.778 15.75H452.278C452.212 15.75 452.148 15.7237 452.102 15.6768C452.055 15.6299 452.028 15.5663 452.028 15.5C452.028 15.4337 452.055 15.3701 452.102 15.3232C452.148 15.2763 452.212 15.25 452.278 15.25ZM450.528 15.125C450.602 15.125 450.675 15.147 450.737 15.1882C450.798 15.2294 450.846 15.288 450.875 15.3565C450.903 15.425 450.911 15.5004 450.896 15.5732C450.882 15.6459 450.846 15.7127 450.793 15.7652C450.741 15.8176 450.674 15.8533 450.601 15.8678C450.529 15.8823 450.453 15.8748 450.385 15.8465C450.316 15.8181 450.258 15.77 450.217 15.7083C450.175 15.6467 450.153 15.5742 450.153 15.5C450.153 15.4005 450.193 15.3052 450.263 15.2348C450.333 15.1645 450.429 15.125 450.528 15.125ZM454.528 52.25C454.182 52.25 453.844 52.1474 453.556 51.9551C453.268 51.7628 453.044 51.4895 452.912 51.1697C452.779 50.8499 452.744 50.4981 452.812 50.1586C452.879 49.8191 453.046 49.5073 453.291 49.2626C453.536 49.0178 453.847 48.8512 454.187 48.7836C454.526 48.7161 454.878 48.7508 455.198 48.8832C455.518 49.0157 455.791 49.24 455.983 49.5278C456.176 49.8155 456.278 50.1539 456.278 50.5C456.278 50.9641 456.094 51.4092 455.766 51.7374C455.438 52.0656 454.992 52.25 454.528 52.25ZM463.028 48H446.028V18H463.028V48Z" fill="#1D1D1F"/>
<path d="M454.528 51.625C455.15 51.625 455.653 51.1213 455.653 50.5C455.653 49.8787 455.15 49.375 454.528 49.375C453.907 49.375 453.403 49.8787 453.403 50.5C453.403 51.1213 453.907 51.625 454.528 51.625Z" fill="#1D1D1F"/>
</g>
<path d="M428.202 68.4648C428.589 68.4648 428.905 68.1484 428.905 67.7617C428.905 67.375 428.589 67.0586 428.202 67.0586C427.815 67.0586 427.499 67.375 427.499 67.7617C427.499 68.1484 427.815 68.4648 428.202 68.4648ZM427.686 76H428.706V69.6836H427.686V76ZM430.637 76H431.691V72.9824H433.824C435.412 72.9824 436.537 71.8633 436.537 70.2578V70.2461C436.537 68.6406 435.412 67.5449 433.824 67.5449H430.637V76ZM433.555 68.4824C434.762 68.4824 435.459 69.1445 435.459 70.2578V70.2695C435.459 71.3828 434.762 72.0449 433.555 72.0449H431.691V68.4824H433.555ZM438.075 76H439.095V72.2617C439.095 71.1543 439.734 70.4746 440.741 70.4746C441.749 70.4746 442.218 71.0195 442.218 72.1562V76H443.237V71.9102C443.237 70.4102 442.446 69.5723 441.028 69.5723C440.097 69.5723 439.505 69.9648 439.189 70.6328H439.095V67.1758H438.075V76ZM447.559 76.1113C449.358 76.1113 450.471 74.8691 450.471 72.8477V72.8359C450.471 70.8086 449.358 69.5723 447.559 69.5723C445.76 69.5723 444.647 70.8086 444.647 72.8359V72.8477C444.647 74.8691 445.76 76.1113 447.559 76.1113ZM447.559 75.209C446.364 75.209 445.69 74.3359 445.69 72.8477V72.8359C445.69 71.3418 446.364 70.4746 447.559 70.4746C448.754 70.4746 449.428 71.3418 449.428 72.8359V72.8477C449.428 74.3359 448.754 75.209 447.559 75.209ZM451.933 76H452.953V72.2617C452.953 71.1543 453.591 70.4746 454.599 70.4746C455.607 70.4746 456.076 71.0195 456.076 72.1562V76H457.095V71.9102C457.095 70.4102 456.304 69.5723 454.886 69.5723C453.954 69.5723 453.363 69.9648 453.046 70.6328H452.953V69.6836H451.933V76ZM461.399 76.1113C462.887 76.1113 463.79 75.2676 464.006 74.4121L464.018 74.3652H462.999L462.975 74.418C462.805 74.7988 462.278 75.2031 461.422 75.2031C460.297 75.2031 459.577 74.4414 459.547 73.1348H464.094V72.7363C464.094 70.8496 463.051 69.5723 461.334 69.5723C459.618 69.5723 458.504 70.9082 458.504 72.8594V72.8652C458.504 74.8457 459.594 76.1113 461.399 76.1113ZM461.329 70.4805C462.26 70.4805 462.952 71.0723 463.057 72.3203H459.565C459.676 71.1191 460.391 70.4805 461.329 70.4805ZM471.712 76.1992C473.598 76.1992 474.835 75.2148 474.835 73.6328V73.627C474.835 72.4082 474.137 71.6992 472.374 71.3066L471.436 71.0957C470.288 70.8438 469.825 70.3867 469.825 69.7129V69.707C469.825 68.8223 470.639 68.3242 471.694 68.3184C472.796 68.3125 473.499 68.8633 473.616 69.6074L473.628 69.6836H474.682L474.677 69.6016C474.589 68.3418 473.411 67.3457 471.723 67.3457C469.977 67.3457 468.753 68.3359 468.747 69.7363V69.7422C468.747 70.9668 469.479 71.7461 471.173 72.1211L472.11 72.3262C473.27 72.584 473.757 73.0645 473.757 73.7676V73.7734C473.757 74.6348 472.919 75.2266 471.77 75.2266C470.552 75.2266 469.673 74.6934 469.596 73.8496L469.591 73.7852H468.536L468.542 73.8496C468.665 75.2266 469.86 76.1992 471.712 76.1992ZM476.473 76H481.711V75.0508H477.527V72.1445H481.494V71.207H477.527V68.4941H481.711V67.5449H476.473V76Z" fill="#1D1D1F"/>
<g clip-path="url(#clip5_2_3299)">
<path d="M557.638 9H541.638C540.842 9 540.079 9.31607 539.516 9.87868C538.954 10.4413 538.638 11.2044 538.638 12V50C538.638 50.7957 538.954 51.5587 539.516 52.1213C540.079 52.6839 540.842 53 541.638 53H557.638C558.433 53 559.196 52.6839 559.759 52.1213C560.322 51.5587 560.638 50.7957 560.638 50V12C560.638 11.2044 560.322 10.4413 559.759 9.87868C559.196 9.31607 558.433 9 557.638 9ZM559.638 50C559.637 50.5302 559.426 51.0386 559.051 51.4135C558.676 51.7885 558.168 51.9994 557.638 52H541.638C541.107 51.9994 540.599 51.7885 540.224 51.4135C539.849 51.0386 539.638 50.5302 539.638 50V12C539.638 11.4698 539.849 10.9614 540.224 10.5865C540.599 10.2115 541.107 10.0006 541.638 10H544.263C544.388 9.99565 544.509 10.0411 544.601 10.1263C544.693 10.2115 544.747 10.3295 544.751 10.4545V11.0709C544.76 11.323 544.867 11.5617 545.05 11.7355C545.233 11.9094 545.476 12.0043 545.729 12H553.547C553.799 12.0043 554.043 11.9094 554.226 11.7355C554.409 11.5617 554.516 11.323 554.524 11.0709V10.4545C554.529 10.3295 554.583 10.2115 554.674 10.1263C554.766 10.0411 554.888 9.99565 555.013 10H557.638C558.168 10.0006 558.676 10.2115 559.051 10.5865C559.426 10.9614 559.637 11.4698 559.638 12V50ZM552.391 10.5057C552.39 10.57 552.37 10.6327 552.334 10.6859C552.298 10.739 552.246 10.7802 552.187 10.8043C552.127 10.8285 552.062 10.8344 551.999 10.8214C551.936 10.8083 551.878 10.777 551.833 10.7312C551.787 10.6855 551.757 10.6273 551.744 10.5642C551.732 10.501 551.739 10.4356 551.764 10.3762C551.788 10.3168 551.83 10.2661 551.884 10.2304C551.937 10.1947 552 10.1757 552.064 10.1757C552.108 10.1759 552.15 10.1847 552.19 10.2014C552.23 10.2181 552.266 10.2425 552.296 10.2731C552.326 10.3038 552.35 10.3401 552.366 10.38C552.383 10.4199 552.391 10.4626 552.391 10.5057ZM551.244 10.5057C551.244 10.5383 551.238 10.5707 551.226 10.6009C551.213 10.6312 551.195 10.6587 551.172 10.6819C551.149 10.7051 551.122 10.7236 551.092 10.7362C551.062 10.7489 551.03 10.7555 550.997 10.7557H549.02C548.954 10.7557 548.89 10.7294 548.843 10.6825C548.796 10.6356 548.77 10.572 548.77 10.5057C548.77 10.4394 548.796 10.3758 548.843 10.3289C548.89 10.282 548.954 10.2557 549.02 10.2557H550.997C551.063 10.2561 551.126 10.2827 551.172 10.3295C551.219 10.3764 551.244 10.4398 551.244 10.5057Z" fill="#1D1D1F"/>
</g>
<path d="M524.315 68.4648C524.702 68.4648 525.018 68.1484 525.018 67.7617C525.018 67.375 524.702 67.0586 524.315 67.0586C523.929 67.0586 523.612 67.375 523.612 67.7617C523.612 68.1484 523.929 68.4648 524.315 68.4648ZM523.8 76H524.819V69.6836H523.8V76ZM526.75 76H527.805V72.9824H529.938C531.525 72.9824 532.65 71.8633 532.65 70.2578V70.2461C532.65 68.6406 531.525 67.5449 529.938 67.5449H526.75V76ZM529.668 68.4824C530.875 68.4824 531.572 69.1445 531.572 70.2578V70.2695C531.572 71.3828 530.875 72.0449 529.668 72.0449H527.805V68.4824H529.668ZM534.189 76H535.208V72.2617C535.208 71.1543 535.847 70.4746 536.855 70.4746C537.862 70.4746 538.331 71.0195 538.331 72.1562V76H539.351V71.9102C539.351 70.4102 538.56 69.5723 537.142 69.5723C536.21 69.5723 535.618 69.9648 535.302 70.6328H535.208V67.1758H534.189V76ZM543.672 76.1113C545.471 76.1113 546.584 74.8691 546.584 72.8477V72.8359C546.584 70.8086 545.471 69.5723 543.672 69.5723C541.873 69.5723 540.76 70.8086 540.76 72.8359V72.8477C540.76 74.8691 541.873 76.1113 543.672 76.1113ZM543.672 75.209C542.477 75.209 541.803 74.3359 541.803 72.8477V72.8359C541.803 71.3418 542.477 70.4746 543.672 70.4746C544.867 70.4746 545.541 71.3418 545.541 72.8359V72.8477C545.541 74.3359 544.867 75.209 543.672 75.209ZM548.046 76H549.066V72.2617C549.066 71.1543 549.704 70.4746 550.712 70.4746C551.72 70.4746 552.189 71.0195 552.189 72.1562V76H553.208V71.9102C553.208 70.4102 552.417 69.5723 550.999 69.5723C550.068 69.5723 549.476 69.9648 549.16 70.6328H549.066V69.6836H548.046V76ZM557.512 76.1113C559.001 76.1113 559.903 75.2676 560.12 74.4121L560.131 74.3652H559.112L559.088 74.418C558.918 74.7988 558.391 75.2031 557.536 75.2031C556.411 75.2031 555.69 74.4414 555.661 73.1348H560.208V72.7363C560.208 70.8496 559.165 69.5723 557.448 69.5723C555.731 69.5723 554.618 70.9082 554.618 72.8594V72.8652C554.618 74.8457 555.708 76.1113 557.512 76.1113ZM557.442 70.4805C558.374 70.4805 559.065 71.0723 559.17 72.3203H555.678C555.79 71.1191 556.504 70.4805 557.442 70.4805ZM566.987 76H568.042V67.5449H566.993L564.743 69.1621V70.2754L566.893 68.7168H566.987V76ZM570.365 76H575.838V75.0508H571.83V74.957L573.752 72.9707C575.281 71.3945 575.697 70.6914 575.697 69.7246V69.7129C575.697 68.3477 574.566 67.3457 573.09 67.3457C571.473 67.3457 570.312 68.4238 570.307 69.9238L570.318 69.9297L571.326 69.9355L571.332 69.9238C571.332 68.9277 572.006 68.2656 573.019 68.2656C574.016 68.2656 574.619 68.9336 574.619 69.8242V69.8359C574.619 70.5742 574.303 71.0137 573.224 72.1797L570.365 75.2734V76Z" fill="#1D1D1F"/>
<g clip-path="url(#clip6_2_3299)">
<path d="M634.153 16H625.153C623.695 16.0017 622.297 16.5818 621.266 17.6128C620.235 18.6439 619.655 20.0418 619.653 21.5V47.5C619.655 48.9581 620.235 50.356 621.266 51.3871C622.297 52.4181 623.695 52.9982 625.153 53H634.153C635.611 52.9982 637.009 52.4181 638.04 51.3871C639.071 50.356 639.651 48.9581 639.653 47.5V21.5C639.652 20.0418 639.072 18.6439 638.04 17.6128C637.009 16.5818 635.611 16.0017 634.153 16ZM637.653 47.5C637.652 48.4279 637.283 49.3175 636.627 49.9736C635.971 50.6298 635.081 50.9989 634.153 51H625.153C624.225 50.9989 623.336 50.6298 622.68 49.9736C622.024 49.3175 621.654 48.4279 621.653 47.5V21.5C621.654 20.5721 622.024 19.6825 622.68 19.0264C623.336 18.3702 624.225 18.0011 625.153 18H634.153C635.081 18.0011 635.971 18.3702 636.627 19.0264C637.283 19.6825 637.652 20.5721 637.653 21.5V47.5ZM663.653 39.5H664.653V45.5H663.653V39.5ZM651.653 16H657.653V17H651.653V16ZM663.653 31.5H664.653V37.5H663.653V31.5ZM651.653 52H657.653V53H651.653V52ZM645.653 37.5H644.653V31.5H645.653V37.5ZM645.653 29.5H644.653V23.5H645.653V29.5ZM645.653 45.5H644.653V39.5H645.653V45.5ZM659.653 17.05V16.0253C661.019 16.1512 662.288 16.7822 663.213 17.7948C664.138 18.8074 664.651 20.1287 664.653 21.5H663.653C663.651 20.396 663.242 19.3315 662.504 18.5104C661.766 17.6893 660.751 17.1693 659.653 17.05ZM663.653 47.5H664.653C664.651 48.8713 664.138 50.1926 663.213 51.2052C662.288 52.2178 661.019 52.8488 659.653 52.9747V51.95C660.751 51.8307 661.766 51.3107 662.504 50.4896C663.242 49.6685 663.651 48.604 663.653 47.5ZM649.653 16.0253V17.05C648.556 17.1693 647.541 17.6893 646.803 18.5104C646.065 19.3315 645.655 20.396 645.653 21.5H644.653C644.655 20.1287 645.169 18.8074 646.094 17.7948C647.018 16.7822 648.288 16.1512 649.653 16.0253ZM649.653 51.95V52.9751C648.288 52.8492 647.018 52.2181 646.093 51.2054C645.169 50.1928 644.655 48.8714 644.653 47.5H645.653C645.655 48.604 646.065 49.6685 646.803 50.4896C647.541 51.3107 648.556 51.8307 649.653 51.95ZM663.653 23.5H664.653V29.5H663.653V23.5Z" fill="#1D1D1F"/>
</g>
<path d="M621.445 76.1992C623.244 76.1992 624.58 75.1973 624.861 73.6504V73.6387H623.795L623.783 73.6504C623.52 74.623 622.623 75.2266 621.445 75.2266C619.816 75.2266 618.797 73.8965 618.797 71.7812V71.7695C618.797 69.6543 619.816 68.3184 621.439 68.3184C622.606 68.3184 623.508 69.0039 623.789 70.0879L623.795 70.0996H624.856L624.861 70.0879C624.609 68.4648 623.221 67.3457 621.439 67.3457C619.143 67.3457 617.713 69.0449 617.713 71.7695V71.7812C617.713 74.5 619.148 76.1992 621.445 76.1992ZM628.978 76.1113C630.777 76.1113 631.89 74.8691 631.89 72.8477V72.8359C631.89 70.8086 630.777 69.5723 628.978 69.5723C627.179 69.5723 626.066 70.8086 626.066 72.8359V72.8477C626.066 74.8691 627.179 76.1113 628.978 76.1113ZM628.978 75.209C627.782 75.209 627.109 74.3359 627.109 72.8477V72.8359C627.109 71.3418 627.782 70.4746 628.978 70.4746C630.173 70.4746 630.847 71.3418 630.847 72.8359V72.8477C630.847 74.3359 630.173 75.209 628.978 75.209ZM633.352 76H634.371V72.0859C634.371 71.1953 634.998 70.4746 635.824 70.4746C636.621 70.4746 637.137 70.9609 637.137 71.7109V76H638.157V71.9395C638.157 71.1367 638.737 70.4746 639.616 70.4746C640.506 70.4746 640.934 70.9375 640.934 71.8691V76H641.953V71.6348C641.953 70.3105 641.233 69.5723 639.944 69.5723C639.071 69.5723 638.35 70.0117 638.01 70.6797H637.916C637.623 70.0234 637.026 69.5723 636.17 69.5723C635.344 69.5723 634.746 69.9648 634.465 70.6445H634.371V69.6836H633.352V76ZM643.673 78.1094H644.693V75.0039H644.787C645.132 75.6777 645.888 76.1113 646.755 76.1113C648.361 76.1113 649.404 74.8281 649.404 72.8477V72.8359C649.404 70.8672 648.355 69.5723 646.755 69.5723C645.876 69.5723 645.173 69.9883 644.787 70.6914H644.693V69.6836H643.673V78.1094ZM646.521 75.209C645.372 75.209 644.669 74.3066 644.669 72.8477V72.8359C644.669 71.377 645.372 70.4746 646.521 70.4746C647.675 70.4746 648.361 71.3652 648.361 72.8359V72.8477C648.361 74.3184 647.675 75.209 646.521 75.209ZM652.612 76.1113C653.461 76.1113 654.124 75.7422 654.522 75.0684H654.616V76H655.635V71.6758C655.635 70.3633 654.774 69.5723 653.233 69.5723C651.885 69.5723 650.924 70.2402 650.76 71.2305L650.754 71.2656H651.774L651.78 71.248C651.944 70.7559 652.442 70.4746 653.198 70.4746C654.141 70.4746 654.616 70.8965 654.616 71.6758V72.25L652.805 72.3613C651.334 72.4492 650.502 73.0996 650.502 74.2246V74.2363C650.502 75.3848 651.411 76.1113 652.612 76.1113ZM651.545 74.2129V74.2012C651.545 73.5742 651.967 73.2344 652.928 73.1758L654.616 73.0703V73.6445C654.616 74.5469 653.86 75.2266 652.823 75.2266C652.09 75.2266 651.545 74.8516 651.545 74.2129ZM657.379 76H658.398V72.0859C658.398 71.1602 659.089 70.5449 660.062 70.5449C660.285 70.5449 660.478 70.5684 660.689 70.6035V69.6133C660.589 69.5957 660.373 69.5723 660.179 69.5723C659.324 69.5723 658.732 69.959 658.492 70.6211H658.398V69.6836H657.379V76ZM664.231 76.1113C665.719 76.1113 666.622 75.2676 666.839 74.4121L666.85 74.3652H665.831L665.807 74.418C665.637 74.7988 665.11 75.2031 664.255 75.2031C663.13 75.2031 662.409 74.4414 662.38 73.1348H666.927V72.7363C666.927 70.8496 665.884 69.5723 664.167 69.5723C662.45 69.5723 661.337 70.9082 661.337 72.8594V72.8652C661.337 74.8457 662.427 76.1113 664.231 76.1113ZM664.161 70.4805C665.093 70.4805 665.784 71.0723 665.889 72.3203H662.397C662.509 71.1191 663.223 70.4805 664.161 70.4805Z" fill="#1D1D1F"/>
<g clip-path="url(#clip7_2_3299)">
<path d="M736.842 42.8356C737.693 43.0616 738.571 43.1703 739.452 43.1589V51.5867C739.425 51.9427 739.275 52.2782 739.028 52.536C738.782 52.7937 738.453 52.9577 738.098 52.9998H736.55C736.152 52.9563 735.784 52.7654 735.52 52.4646C735.256 52.1637 735.113 51.7748 735.121 51.3743V42.1843C735.68 42.4383 736.255 42.6558 736.842 42.8356ZM735.121 41.0885C733.867 40.4492 732.744 39.5804 731.81 38.5271C730.871 37.5042 730.305 36.1941 730.204 34.8092C730.161 33.6334 730.438 32.468 731.006 31.4372C731.49 30.6459 732.156 29.9816 732.949 29.4995C733.742 29.0173 734.638 28.7313 735.563 28.6651C735.609 28.6651 735.656 28.6659 735.702 28.6674C737.094 28.7134 740.457 29.0262 743.478 33.0264C743.315 33.0326 743.152 33.0471 742.99 33.0699C742.18 33.2063 741.407 33.5123 740.723 33.9679C740.039 34.4236 739.459 35.0186 739.021 35.714C738.183 37.0085 737.752 38.5249 737.786 40.0668C737.794 40.2947 737.823 40.5213 737.872 40.7439C737.984 41.2344 738.188 41.6996 738.471 42.1152C738.019 42.0819 737.57 42.0028 737.134 41.879C736.442 41.6717 735.769 41.4073 735.121 41.0885ZM736.187 34.7555C736.38 34.8881 736.613 34.9501 736.846 34.931C737.079 34.9119 737.299 34.8129 737.468 34.6506L737.526 34.5782C737.632 34.4653 737.71 34.3288 737.754 34.1799C737.797 34.0311 737.805 33.874 737.776 33.7217C737.747 33.5693 737.683 33.4259 737.588 33.3032C737.493 33.1804 737.371 33.0818 737.231 33.0154L735.721 32.0436C735.51 31.8969 735.257 31.8251 735 31.84C734.744 31.8548 734.501 31.9553 734.309 32.1253L734.224 32.2077C734.136 32.3154 734.072 32.4407 734.036 32.5752C734.001 32.7096 733.995 32.8501 734.019 32.9871C734.042 33.1241 734.095 33.2544 734.174 33.3692C734.252 33.484 734.355 33.5805 734.474 33.6523L736.187 34.7555ZM747.921 38.951C747.882 39.1529 747.83 39.352 747.764 39.5467C747.603 40.0089 747.39 40.451 747.128 40.8641C746.813 41.4193 746.412 41.9208 745.94 42.3498C745.551 42.7364 745.087 43.0397 744.577 43.2411C744.067 43.4425 743.522 43.5379 742.974 43.5213C742.344 43.5227 741.719 43.4162 741.126 43.2064C741.052 43.1717 740.994 43.1374 740.924 43.1028C740.642 42.9655 740.369 42.8108 740.106 42.6396C739.888 42.4975 739.683 42.3365 739.493 42.1584C739.478 42.1447 739.466 42.1309 739.452 42.1171C739.021 41.6949 738.725 41.1545 738.6 40.5641C738.57 40.4288 738.55 40.2914 738.54 40.153C738.383 38.3309 739.477 34.4296 743.116 33.8089C743.344 33.7688 743.576 33.748 743.808 33.7468C743.875 33.7468 743.947 33.7579 744.016 33.7621C744.281 33.7741 744.543 33.822 744.796 33.9045C744.843 33.921 744.885 33.9479 744.931 33.9657C745.179 34.0582 745.419 34.1705 745.648 34.3015C746.388 34.7278 746.998 35.3456 747.416 36.0898C747.68 36.5785 747.86 37.1082 747.948 37.6566C748.008 38.0868 747.999 38.5238 747.921 38.951ZM746.617 38.171C746.469 37.6823 745.906 37.693 745.555 38.171L743.813 40.5724C743.546 41.0717 743.748 41.6774 744.215 41.6348H744.216C744.95 41.416 745.588 40.9537 746.024 40.3242C746.461 39.6947 746.67 38.9354 746.617 38.1712V38.171ZM719.167 43.1587V51.5865C719.194 51.9425 719.344 52.2781 719.591 52.5359C719.838 52.7937 720.166 52.9577 720.521 52.9998H722.069C722.467 52.9564 722.835 52.7654 723.099 52.4646C723.364 52.1637 723.506 51.7748 723.498 51.3743V42.1843C722.939 42.4381 722.364 42.6555 721.777 42.8352C720.926 43.0613 720.048 43.1702 719.168 43.1589L719.167 43.1587ZM727.613 31.437C728.181 32.4678 728.458 33.6332 728.415 34.809C728.314 36.1939 727.748 37.5041 726.81 38.5271C725.876 39.5805 724.753 40.4493 723.498 41.0885C722.85 41.4072 722.177 41.6714 721.485 41.8785C721.048 42.0024 720.599 42.0816 720.145 42.1148C720.431 41.6997 720.635 41.2344 720.747 40.7434C720.796 40.5208 720.825 40.2942 720.833 40.0663C720.866 38.5246 720.436 37.0083 719.598 35.714C719.16 35.0187 718.58 34.4237 717.896 33.968C717.212 33.5123 716.44 33.2062 715.63 33.0698C715.468 33.0471 715.305 33.0325 715.142 33.0263C718.162 29.0263 721.526 28.7133 722.917 28.6673C722.964 28.6658 723.01 28.665 723.056 28.665C723.982 28.7313 724.878 29.0174 725.67 29.4996C726.463 29.9817 727.129 30.646 727.613 31.4372L727.613 31.437ZM724.396 32.207L724.311 32.1246C724.119 31.9546 723.875 31.8541 723.619 31.8393C723.363 31.8244 723.109 31.8962 722.899 32.0429L721.389 33.0147C721.249 33.0812 721.126 33.1797 721.031 33.3025C720.937 33.4252 720.872 33.5686 720.843 33.721C720.815 33.8733 720.822 34.0303 720.866 34.1792C720.909 34.3281 720.987 34.4646 721.093 34.5775L721.151 34.6499C721.32 34.8122 721.54 34.9112 721.773 34.9303C722.007 34.9494 722.24 34.8874 722.433 34.7548L724.147 33.6516C724.266 33.5798 724.368 33.4832 724.446 33.3684C724.524 33.2537 724.577 33.1235 724.601 32.9866C724.624 32.8497 724.618 32.7093 724.583 32.5749C724.548 32.4405 724.484 32.3153 724.396 32.2077L724.396 32.207ZM719.167 42.117C719.154 42.1308 719.141 42.1445 719.127 42.1582C718.937 42.3363 718.731 42.4973 718.513 42.6394C718.25 42.8106 717.977 42.9653 717.695 43.1026C717.625 43.1372 717.568 43.1715 717.493 43.2062C716.9 43.416 716.275 43.5225 715.646 43.5211C715.098 43.5377 714.552 43.4423 714.042 43.241C713.532 43.0396 713.068 42.7364 712.68 42.3498C712.207 41.9207 711.806 41.4191 711.492 40.8638C711.229 40.4507 711.016 40.0086 710.855 39.5464C710.789 39.3517 710.737 39.1526 710.698 38.9507C710.62 38.5234 710.611 38.0864 710.671 37.6562C710.759 37.1079 710.939 36.5783 711.203 36.0898C711.621 35.3456 712.232 34.7279 712.972 34.3018C713.201 34.1709 713.44 34.0587 713.688 33.9663C713.735 33.9484 713.776 33.9214 713.824 33.9048C714.076 33.8223 714.339 33.7744 714.604 33.7624C714.673 33.7582 714.745 33.7471 714.812 33.7471C715.044 33.7483 715.275 33.7691 715.503 33.8092C719.142 34.4299 720.237 38.3312 720.08 40.1533C720.07 40.2917 720.05 40.4291 720.019 40.5644C719.895 41.1549 719.599 41.6953 719.168 42.1175L719.167 42.117ZM714.807 40.5724L713.064 38.1712C712.714 37.6932 712.151 37.6825 712.002 38.1712C711.951 38.5458 711.976 38.9266 712.075 39.2915C712.173 39.6563 712.343 39.9979 712.576 40.2961C712.772 40.6325 713.036 40.9249 713.35 41.1552C713.665 41.3855 714.023 41.5488 714.403 41.6348H714.404C714.872 41.6774 715.073 41.0717 714.807 40.5724Z" fill="#1D1D1F"/>
</g>
<path d="M708.273 76H709.381L710.231 73.5801H713.594L714.443 76H715.551L712.434 67.5449H711.391L708.273 76ZM711.865 68.9102H711.959L713.283 72.6836H710.541L711.865 68.9102ZM717.323 68.4648C717.71 68.4648 718.027 68.1484 718.027 67.7617C718.027 67.375 717.71 67.0586 717.323 67.0586C716.937 67.0586 716.62 67.375 716.62 67.7617C716.62 68.1484 716.937 68.4648 717.323 68.4648ZM716.808 76H717.827V69.6836H716.808V76ZM719.629 76H720.649V72.0859C720.649 71.1602 721.34 70.5449 722.313 70.5449C722.535 70.5449 722.729 70.5684 722.94 70.6035V69.6133C722.84 69.5957 722.623 69.5723 722.43 69.5723C721.574 69.5723 720.983 69.959 720.742 70.6211H720.649V69.6836H719.629V76ZM724.208 76H725.263V72.9824H727.396C728.984 72.9824 730.109 71.8633 730.109 70.2578V70.2461C730.109 68.6406 728.984 67.5449 727.396 67.5449H724.208V76ZM727.126 68.4824C728.333 68.4824 729.031 69.1445 729.031 70.2578V70.2695C729.031 71.3828 728.333 72.0449 727.126 72.0449H725.263V68.4824H727.126ZM734.008 76.1113C735.807 76.1113 736.92 74.8691 736.92 72.8477V72.8359C736.92 70.8086 735.807 69.5723 734.008 69.5723C732.209 69.5723 731.096 70.8086 731.096 72.8359V72.8477C731.096 74.8691 732.209 76.1113 734.008 76.1113ZM734.008 75.209C732.813 75.209 732.139 74.3359 732.139 72.8477V72.8359C732.139 71.3418 732.813 70.4746 734.008 70.4746C735.204 70.4746 735.877 71.3418 735.877 72.8359V72.8477C735.877 74.3359 735.204 75.209 734.008 75.209ZM740.714 76.1113C741.593 76.1113 742.297 75.6953 742.683 74.9922H742.777V76H743.797V67.1758H742.777V70.6797H742.683C742.338 70.0059 741.582 69.5723 740.714 69.5723C739.109 69.5723 738.066 70.8555 738.066 72.8359V72.8477C738.066 74.8164 739.115 76.1113 740.714 76.1113ZM740.949 75.209C739.795 75.209 739.109 74.3184 739.109 72.8477V72.8359C739.109 71.3652 739.795 70.4746 740.949 70.4746C742.097 70.4746 742.8 71.377 742.8 72.8359V72.8477C742.8 74.3066 742.097 75.209 740.949 75.209ZM747.802 76.1113C749.237 76.1113 750.333 75.332 750.333 74.207V74.1953C750.333 73.293 749.759 72.7773 748.569 72.4902L747.596 72.2559C746.852 72.0742 746.536 71.8047 746.536 71.377V71.3652C746.536 70.8086 747.087 70.4219 747.837 70.4219C748.598 70.4219 749.091 70.7676 749.225 71.2656H750.227C750.087 70.2344 749.167 69.5723 747.843 69.5723C746.501 69.5723 745.493 70.3633 745.493 71.4121V71.418C745.493 72.3262 746.026 72.8418 747.21 73.123L748.188 73.3574C748.968 73.5449 749.29 73.8438 749.29 74.2715V74.2832C749.29 74.8574 748.686 75.2617 747.837 75.2617C747.028 75.2617 746.524 74.916 746.354 74.3887H745.311C745.428 75.4316 746.395 76.1113 747.802 76.1113Z" fill="#1D1D1F"/>
<g clip-path="url(#clip8_2_3299)">
<path d="M808.513 25.5C805.793 25.5 803.135 26.3064 800.874 27.8173C798.612 29.3282 796.85 31.4756 795.809 33.9881C794.769 36.5006 794.496 39.2653 795.027 41.9325C795.557 44.5997 796.867 47.0497 798.79 48.9727C800.713 50.8957 803.163 52.2053 805.83 52.7358C808.497 53.2663 811.262 52.994 813.775 51.9533C816.287 50.9126 818.435 49.1503 819.945 46.8891C821.456 44.6279 822.263 41.9695 822.263 39.25C822.263 35.6033 820.814 32.1059 818.235 29.5273C815.657 26.9487 812.159 25.5 808.513 25.5ZM808.513 51.35C806.12 51.35 803.78 50.6403 801.79 49.3108C799.8 47.9812 798.25 46.0915 797.334 43.8805C796.418 41.6695 796.178 39.2366 796.645 36.8894C797.112 34.5422 798.264 32.3862 799.957 30.694C801.649 29.0018 803.805 27.8494 806.152 27.3825C808.499 26.9156 810.932 27.1552 813.143 28.0711C815.354 28.9869 817.244 30.5378 818.573 32.5276C819.903 34.5174 820.613 36.8568 820.613 39.25C820.609 42.458 819.333 45.5335 817.065 47.8019C814.796 50.0703 811.721 51.3463 808.513 51.35ZM808.513 28.25C806.337 28.25 804.21 28.8951 802.401 30.1038C800.592 31.3125 799.183 33.0305 798.35 35.0405C797.517 37.0505 797.3 39.2622 797.724 41.396C798.149 43.5298 799.196 45.4898 800.735 47.0282C802.273 48.5666 804.233 49.6142 806.367 50.0386C808.5 50.4631 810.712 50.2452 812.722 49.4127C814.732 48.5801 816.45 47.1702 817.659 45.3613C818.868 43.5523 819.513 41.4256 819.513 39.25C819.513 37.8055 819.228 36.3751 818.675 35.0405C818.123 33.7059 817.312 32.4933 816.291 31.4718C815.269 30.4504 814.057 29.6401 812.722 29.0873C811.388 28.5345 809.957 28.25 808.513 28.25ZM808.987 34.506C809.152 34.3037 809.359 34.1386 809.593 34.0216C809.827 33.9046 810.082 33.8383 810.344 33.827C810.365 34.0896 810.333 34.3538 810.25 34.6038C810.167 34.8538 810.034 35.0845 809.86 35.282C809.708 35.4993 809.504 35.6752 809.267 35.7936C809.03 35.9121 808.768 35.9693 808.503 35.96C808.478 35.6973 808.508 35.4324 808.592 35.182C808.675 34.9317 808.809 34.7015 808.987 34.506ZM811.641 41.984C811.265 42.558 810.834 43.136 810.199 43.136C809.599 43.136 809.391 42.748 808.694 42.748C807.945 42.748 807.718 43.136 807.145 43.136C806.51 43.136 806.076 42.527 805.679 41.959C805.083 41.0579 804.751 40.0079 804.721 38.928C804.694 38.3453 804.828 37.7665 805.109 37.255C805.305 36.9079 805.585 36.616 805.924 36.4062C806.263 36.1965 806.65 36.0757 807.048 36.055C807.657 36.034 808.179 36.491 808.548 36.491C809.133 36.2992 809.733 36.1534 810.341 36.055C810.679 36.0538 811.011 36.1375 811.308 36.2984C811.605 36.4593 811.857 36.6923 812.041 36.976C811.735 37.1693 811.482 37.4362 811.306 37.7524C811.129 38.0686 811.035 38.424 811.032 38.786C811.042 39.1847 811.165 39.5722 811.387 39.9039C811.609 40.2355 811.919 40.4976 812.284 40.66C812.139 41.1319 811.922 41.5786 811.641 41.984Z" fill="#1D1D1F"/>
</g>
<path d="M791.682 76H792.79L793.639 73.5801H797.003L797.852 76H798.96L795.842 67.5449H794.799L791.682 76ZM795.274 68.9102H795.368L796.692 72.6836H793.95L795.274 68.9102ZM800.732 68.4648C801.119 68.4648 801.435 68.1484 801.435 67.7617C801.435 67.375 801.119 67.0586 800.732 67.0586C800.345 67.0586 800.029 67.375 800.029 67.7617C800.029 68.1484 800.345 68.4648 800.732 68.4648ZM800.217 76H801.236V69.6836H800.217V76ZM803.038 76H804.057V72.0859C804.057 71.1602 804.749 70.5449 805.722 70.5449C805.944 70.5449 806.138 70.5684 806.348 70.6035V69.6133C806.249 69.5957 806.032 69.5723 805.839 69.5723C804.983 69.5723 804.391 69.959 804.151 70.6211H804.057V69.6836H803.038V76ZM809.17 76H810.225V68.4941H812.949V67.5449H806.445V68.4941H809.17V76ZM814.833 76.1113C815.683 76.1113 816.345 75.7422 816.743 75.0684H816.837V76H817.857V71.6758C817.857 70.3633 816.995 69.5723 815.454 69.5723C814.107 69.5723 813.146 70.2402 812.982 71.2305L812.976 71.2656H813.995L814.001 71.248C814.165 70.7559 814.663 70.4746 815.419 70.4746C816.362 70.4746 816.837 70.8965 816.837 71.6758V72.25L815.026 72.3613C813.556 72.4492 812.724 73.0996 812.724 74.2246V74.2363C812.724 75.3848 813.632 76.1113 814.833 76.1113ZM813.767 74.2129V74.2012C813.767 73.5742 814.189 73.2344 815.149 73.1758L816.837 73.0703V73.6445C816.837 74.5469 816.081 75.2266 815.044 75.2266C814.312 75.2266 813.767 74.8516 813.767 74.2129ZM822.201 78.2266C823.924 78.2266 825.014 77.3242 825.014 75.9121V69.6836H823.994V70.7266H823.924C823.537 70.0117 822.846 69.5723 821.955 69.5723C820.303 69.5723 819.283 70.8555 819.283 72.625V72.6367C819.283 74.4062 820.297 75.6719 821.932 75.6719C822.799 75.6719 823.514 75.2793 823.912 74.582H824.006V75.8594C824.006 76.791 823.332 77.3242 822.201 77.3242C821.293 77.3242 820.731 76.9844 820.619 76.5039L820.613 76.498H819.559L819.547 76.5039C819.705 77.541 820.678 78.2266 822.201 78.2266ZM822.154 74.7695C820.983 74.7695 820.326 73.8906 820.326 72.6367V72.625C820.326 71.3711 820.983 70.4746 822.154 70.4746C823.321 70.4746 824.029 71.3711 824.029 72.625V72.6367C824.029 73.8906 823.326 74.7695 822.154 74.7695Z" fill="#1D1D1F"/>
<g clip-path="url(#clip9_2_3299)">
<path d="M904.083 8.09658C903.732 7.40428 903.17 6.84186 902.478 6.49108C902.129 6.31584 901.758 6.19041 901.374 6.11848C900.98 6.04684 900.581 6.00728 900.181 6.00018C899.813 5.98878 899.326 6.00018 898.939 6.00018H886.215C886.05 6.00018 885.888 6.00018 885.726 6.00068C885.113 5.98281 884.5 6.02225 883.895 6.11848C883.511 6.19048 883.14 6.3159 882.791 6.49108C882.099 6.84217 881.537 7.40451 881.186 8.09658C881.011 8.44525 880.885 8.81672 880.813 9.20018C880.753 9.52419 880.716 9.85215 880.703 10.1815C880.688 10.5067 880.686 10.8592 880.685 11.1943V11.6352V47.3512C880.685 47.5001 880.685 47.647 880.685 47.7921C880.685 48.1272 880.688 48.4797 880.703 48.805C880.716 49.1343 880.753 49.4623 880.813 49.7863C880.885 50.1698 881.011 50.5414 881.186 50.8902C881.537 51.5824 882.099 52.1448 882.791 52.4958C883.14 52.6709 883.512 52.7963 883.895 52.8683C884.289 52.94 884.688 52.9796 885.089 52.9868C885.456 52.9982 885.943 52.9968 886.33 52.9968C891.051 52.9968 892.676 53.0002 897.397 53.0002C897.278 52.9002 897.177 52.7617 897.027 52.6379C896.829 52.4326 896.651 52.2102 896.493 51.9734C896.3 51.6931 896.15 51.3863 896.046 51.0625C895.941 50.7302 895.86 50.3908 895.803 50.047C895.747 49.7495 895.714 49.4482 895.702 49.1457C895.687 48.8468 895.686 48.5233 895.685 48.2157C895.685 48.081 895.685 47.9451 895.685 47.8071V14.1934C895.685 14.0554 895.685 13.9196 895.685 13.785C895.685 13.4772 895.687 13.1536 895.702 12.855C895.714 12.5525 895.748 12.2512 895.803 11.9536C895.869 11.6007 895.985 11.2589 896.146 10.9382C896.469 10.3014 896.986 9.78403 897.623 9.46128C897.944 9.30009 898.286 9.18473 898.638 9.11858C899.19 9.02745 899.748 8.98811 900.307 9.00108C900.468 9.00018 900.631 9.00018 900.796 9.00018H904.55M891.02 12.681C891.02 12.9449 891.02 13.1286 891.019 13.2822C891.019 13.4332 891.017 13.5583 891.013 13.6732C891.008 13.8983 890.983 14.1226 890.938 14.3432C890.889 14.5735 890.81 14.796 890.7 15.0044C890.473 15.4355 890.121 15.7879 889.689 16.0152C889.481 16.1244 889.258 16.2043 889.028 16.2528C888.808 16.298 888.583 16.3233 888.358 16.3284C888.243 16.3324 888.118 16.3338 887.967 16.3342C887.814 16.3349 887.63 16.3348 887.366 16.3348H886.004C885.74 16.3348 885.556 16.3348 885.403 16.3342C885.252 16.3342 885.127 16.3324 885.012 16.3284C884.787 16.3233 884.562 16.298 884.342 16.2528C884.111 16.2043 883.889 16.1244 883.681 16.0152C883.249 15.7879 882.897 15.4355 882.67 15.0044C882.56 14.796 882.48 14.5735 882.432 14.3432C882.387 14.1226 882.362 13.8983 882.357 13.6732C882.353 13.5583 882.351 13.4332 882.351 13.2822C882.35 13.1285 882.35 12.9449 882.35 12.681V11.3194C882.35 11.0554 882.35 10.8718 882.351 10.7182C882.351 10.567 882.353 10.4419 882.357 10.3271C882.362 10.1019 882.387 9.87769 882.432 9.65708C882.481 9.42681 882.561 9.20431 882.67 8.99588C882.897 8.56469 883.249 8.21222 883.68 7.98468C883.889 7.87548 884.111 7.79553 884.341 7.74708C884.562 7.70187 884.786 7.67657 885.011 7.67148C885.126 7.66748 885.251 7.66618 885.402 7.66558H886.004H887.365H887.967C888.118 7.66618 888.243 7.66748 888.358 7.67148C888.583 7.67653 888.807 7.70183 889.028 7.74708C889.258 7.79553 889.481 7.87548 889.689 7.98468C890.12 8.21205 890.473 8.56438 890.7 8.99548C890.809 9.20386 890.889 9.42637 890.938 9.65668C890.983 9.87729 891.008 10.1015 891.013 10.3267C891.017 10.4416 891.019 10.5667 891.019 10.7178C891.02 10.8715 891.02 11.0551 891.02 11.319V12.681ZM915.685 27.3082V48.6921C915.65 49.0693 915.469 49.4178 915.18 49.6625C914.891 49.9073 914.517 50.0285 914.139 50.0002H901.23C900.852 50.0285 900.479 49.9073 900.19 49.6625C899.901 49.4178 899.719 49.0693 899.685 48.6921V27.3133C899.719 26.9347 899.901 26.5848 900.191 26.3392C900.482 26.0935 900.857 25.9718 901.236 26.0002H914.14C914.517 25.9718 914.891 26.0931 915.18 26.3378C915.469 26.5825 915.65 26.931 915.685 27.3082ZM918.685 14.8216C918.684 14.5138 918.683 14.1902 918.668 13.8916C918.656 13.5891 918.622 13.2878 918.567 12.9902C918.501 12.6373 918.385 12.2955 918.224 11.9748C917.901 11.3381 917.384 10.8209 916.747 10.498C916.426 10.3367 916.085 10.2213 915.732 10.1552C915.369 10.0892 915.002 10.0527 914.634 10.0462C914.296 10.0362 913.848 10.037 913.492 10.037H901.772C901.606 10.037 901.443 10.037 901.282 10.0378C900.723 10.0247 900.165 10.064 899.613 10.1552C899.26 10.2213 898.919 10.3367 898.598 10.498C897.961 10.8206 897.443 11.3378 897.121 11.9746C896.96 12.2954 896.844 12.6373 896.778 12.9902C896.722 13.2878 896.689 13.5891 896.677 13.8916C896.662 14.1904 896.685 14.514 896.685 14.8216V15.2301V47.8069V48.2155C896.685 48.5233 896.662 48.8468 896.677 49.1455C896.689 49.448 896.722 49.7492 896.778 50.0468C896.844 50.3997 896.96 50.7415 897.121 51.0623C897.443 51.6991 897.961 52.2164 898.598 52.5392C898.918 52.7003 899.26 52.8156 899.613 52.8819C899.976 52.9479 900.343 52.9844 900.711 52.9908C901.049 53.0013 901.497 52.9999 901.853 52.9999H913.573H914.063C914.622 53.0128 915.18 52.9735 915.731 52.8824C916.084 52.8162 916.426 52.7008 916.747 52.5397C917.383 52.2167 917.901 51.6994 918.224 51.0628C918.385 50.742 918.5 50.4002 918.566 50.0473C918.622 49.7497 918.656 49.4485 918.668 49.146C918.682 48.8471 918.684 48.5236 918.684 48.216C918.684 48.0813 918.684 47.9454 918.684 47.8074V15.2302C918.685 15.0921 918.685 14.9563 918.685 14.8216ZM898.349 14.705C898.35 14.5544 898.351 14.4297 898.355 14.315C898.36 14.0905 898.385 13.867 898.43 13.6471C898.479 13.4177 898.558 13.196 898.667 12.9883C898.893 12.5588 899.244 12.2079 899.674 11.9818C899.881 11.873 900.103 11.7933 900.332 11.745C900.552 11.6999 900.776 11.6747 901 11.6697C901.115 11.6658 901.239 11.6645 901.39 11.6639C901.543 11.6633 901.726 11.6639 901.989 11.6639H903.381H903.836C903.982 11.6639 904.144 11.6639 904.291 11.6676C904.595 11.6684 904.898 11.7072 905.192 11.7832C905.527 11.8729 905.838 12.0336 906.105 12.2544C906.372 12.4751 906.589 12.7507 906.74 13.0625C906.882 13.3634 906.969 13.6874 906.996 14.0191C907.011 14.1772 907.017 14.3355 907.019 14.5191C907.021 14.6869 907.021 14.9486 907.021 15.3042V16.6969C907.021 16.9597 907.021 17.1427 907.02 17.2957C907.02 17.4462 907.018 17.5709 907.015 17.6852C907.009 17.9096 906.984 18.1332 906.939 18.3531C906.891 18.5825 906.811 18.8042 906.703 19.0119C906.476 19.4414 906.125 19.7924 905.695 20.0189C905.488 20.1277 905.266 20.2073 905.037 20.2556C904.817 20.3006 904.593 20.3258 904.369 20.3308C904.255 20.3348 904.13 20.3362 903.979 20.3367C903.826 20.3373 903.643 20.3367 903.38 20.3367H901.989C901.633 20.3367 901.372 20.3367 901.204 20.335C901.02 20.3327 900.862 20.3271 900.704 20.3118C900.372 20.2848 900.048 20.198 899.747 20.0556C899.505 19.9383 899.284 19.7814 899.094 19.5912C898.795 19.2906 898.579 18.917 898.468 18.5075C898.392 18.2133 898.353 17.9107 898.352 17.6069C898.349 17.46 898.349 17.2981 898.349 17.1515C898.349 16.9999 898.349 16.8486 898.349 16.6965V15.3038C898.349 15.0409 898.348 14.8579 898.349 14.705H898.349ZM916.685 48.6921C916.652 49.3351 916.365 49.939 915.888 50.3715C915.411 50.804 914.783 51.0301 914.139 51.0002H901.23C900.587 51.0301 899.958 50.804 899.481 50.3715C899.004 49.939 898.718 49.3351 898.685 48.6921V27.3133C898.718 26.6688 899.005 26.0637 899.483 25.6302C899.961 25.1967 900.591 24.9702 901.236 25.0002H914.14C914.783 24.9703 915.412 25.1963 915.889 25.6289C916.365 26.0614 916.652 26.6652 916.685 27.3082V48.6921Z" fill="#1D1D1F"/>
</g>
<path d="M866.683 76H867.791L868.64 73.5801H872.004L872.853 76H873.961L870.844 67.5449H869.801L866.683 76ZM870.275 68.9102H870.369L871.693 72.6836H868.951L870.275 68.9102ZM877.427 76.1113C878.944 76.1113 879.794 75.2969 880.052 74.1543L880.063 74.0898L879.056 74.0957L879.044 74.1309C878.809 74.834 878.27 75.209 877.421 75.209C876.296 75.209 875.569 74.2773 875.569 72.8242V72.8125C875.569 71.3887 876.284 70.4746 877.421 70.4746C878.329 70.4746 878.892 70.9785 879.05 71.5996L879.056 71.6172H880.069L880.063 71.582C879.876 70.457 878.956 69.5723 877.421 69.5723C875.651 69.5723 874.526 70.8496 874.526 72.8125V72.8242C874.526 74.8281 875.657 76.1113 877.427 76.1113ZM884.022 76.1113C885.539 76.1113 886.389 75.2969 886.647 74.1543L886.658 74.0898L885.65 74.0957L885.639 74.1309C885.404 74.834 884.865 75.209 884.016 75.209C882.891 75.209 882.164 74.2773 882.164 72.8242V72.8125C882.164 71.3887 882.879 70.4746 884.016 70.4746C884.924 70.4746 885.486 70.9785 885.645 71.5996L885.65 71.6172H886.664L886.658 71.582C886.471 70.457 885.551 69.5723 884.016 69.5723C882.246 69.5723 881.121 70.8496 881.121 72.8125V72.8242C881.121 74.8281 882.252 76.1113 884.022 76.1113ZM890.611 76.1113C892.099 76.1113 893.001 75.2676 893.218 74.4121L893.23 74.3652H892.21L892.187 74.418C892.017 74.7988 891.489 75.2031 890.634 75.2031C889.509 75.2031 888.788 74.4414 888.759 73.1348H893.306V72.7363C893.306 70.8496 892.263 69.5723 890.546 69.5723C888.829 69.5723 887.716 70.9082 887.716 72.8594V72.8652C887.716 74.8457 888.806 76.1113 890.611 76.1113ZM890.54 70.4805C891.472 70.4805 892.163 71.0723 892.269 72.3203H888.777C888.888 71.1191 889.603 70.4805 890.54 70.4805ZM896.936 76.1113C898.371 76.1113 899.467 75.332 899.467 74.207V74.1953C899.467 73.293 898.893 72.7773 897.703 72.4902L896.731 72.2559C895.987 72.0742 895.67 71.8047 895.67 71.377V71.3652C895.67 70.8086 896.221 70.4219 896.971 70.4219C897.733 70.4219 898.225 70.7676 898.36 71.2656H899.362C899.221 70.2344 898.301 69.5723 896.977 69.5723C895.635 69.5723 894.627 70.3633 894.627 71.4121V71.418C894.627 72.3262 895.16 72.8418 896.344 73.123L897.323 73.3574C898.102 73.5449 898.424 73.8438 898.424 74.2715V74.2832C898.424 74.8574 897.821 75.2617 896.971 75.2617C896.162 75.2617 895.658 74.916 895.489 74.3887H894.446C894.563 75.4316 895.53 76.1113 896.936 76.1113ZM902.98 76.1113C904.415 76.1113 905.511 75.332 905.511 74.207V74.1953C905.511 73.293 904.937 72.7773 903.747 72.4902L902.775 72.2559C902.031 72.0742 901.714 71.8047 901.714 71.377V71.3652C901.714 70.8086 902.265 70.4219 903.015 70.4219C903.777 70.4219 904.269 70.7676 904.404 71.2656H905.406C905.265 70.2344 904.345 69.5723 903.021 69.5723C901.679 69.5723 900.671 70.3633 900.671 71.4121V71.418C900.671 72.3262 901.204 72.8418 902.388 73.123L903.367 73.3574C904.146 73.5449 904.468 73.8438 904.468 74.2715V74.2832C904.468 74.8574 903.865 75.2617 903.015 75.2617C902.206 75.2617 901.703 74.916 901.533 74.3887H900.49C900.607 75.4316 901.574 76.1113 902.98 76.1113ZM909.569 76.1113C911.368 76.1113 912.481 74.8691 912.481 72.8477V72.8359C912.481 70.8086 911.368 69.5723 909.569 69.5723C907.77 69.5723 906.657 70.8086 906.657 72.8359V72.8477C906.657 74.8691 907.77 76.1113 909.569 76.1113ZM909.569 75.209C908.374 75.209 907.7 74.3359 907.7 72.8477V72.8359C907.7 71.3418 908.374 70.4746 909.569 70.4746C910.764 70.4746 911.438 71.3418 911.438 72.8359V72.8477C911.438 74.3359 910.764 75.209 909.569 75.209ZM913.943 76H914.963V72.0859C914.963 71.1602 915.654 70.5449 916.627 70.5449C916.849 70.5449 917.043 70.5684 917.254 70.6035V69.6133C917.154 69.5957 916.937 69.5723 916.744 69.5723C915.888 69.5723 915.297 69.959 915.056 70.6211H914.963V69.6836H913.943V76ZM918.932 68.4648C919.319 68.4648 919.636 68.1484 919.636 67.7617C919.636 67.375 919.319 67.0586 918.932 67.0586C918.546 67.0586 918.229 67.375 918.229 67.7617C918.229 68.1484 918.546 68.4648 918.932 68.4648ZM918.417 76H919.436V69.6836H918.417V76ZM923.816 76.1113C925.305 76.1113 926.207 75.2676 926.424 74.4121L926.435 74.3652H925.416L925.392 74.418C925.223 74.7988 924.695 75.2031 923.84 75.2031C922.715 75.2031 921.994 74.4414 921.965 73.1348H926.512V72.7363C926.512 70.8496 925.469 69.5723 923.752 69.5723C922.035 69.5723 920.922 70.9082 920.922 72.8594V72.8652C920.922 74.8457 922.012 76.1113 923.816 76.1113ZM923.746 70.4805C924.678 70.4805 925.369 71.0723 925.474 72.3203H921.982C922.094 71.1191 922.808 70.4805 923.746 70.4805ZM930.142 76.1113C931.577 76.1113 932.673 75.332 932.673 74.207V74.1953C932.673 73.293 932.099 72.7773 930.909 72.4902L929.937 72.2559C929.192 72.0742 928.876 71.8047 928.876 71.377V71.3652C928.876 70.8086 929.427 70.4219 930.177 70.4219C930.938 70.4219 931.431 70.7676 931.565 71.2656H932.567C932.427 70.2344 931.507 69.5723 930.183 69.5723C928.841 69.5723 927.833 70.3633 927.833 71.4121V71.418C927.833 72.3262 928.366 72.8418 929.55 73.123L930.528 73.3574C931.308 73.5449 931.63 73.8438 931.63 74.2715V74.2832C931.63 74.8574 931.026 75.2617 930.177 75.2617C929.368 75.2617 928.864 74.916 928.694 74.3887H927.651C927.769 75.4316 928.735 76.1113 930.142 76.1113Z" fill="#1D1D1F"/>
<g clip-path="url(#clip10_2_3299)">
<path d="M1018.47 27H990.466C988.256 27 986.466 28.79 986.466 31V49C986.466 51.21 988.256 53 990.466 53H1018.47C1020.68 53 1022.47 51.21 1022.47 49V31C1022.47 28.79 1020.68 27 1018.47 27ZM993.756 30.45C994.026 30.13 994.436 29.92 994.806 29.92C994.826 30.34 994.706 30.71 994.436 31.01C994.196 31.33 993.766 31.62 993.386 31.57C993.296 31.15 993.536 30.72 993.756 30.45ZM995.796 36.15C995.506 36.59 995.166 37.08 994.676 37.08C994.216 37.08 994.036 36.77 993.496 36.77C992.926 36.77 992.756 37.08 992.316 37.08C991.826 37.08 991.506 36.59 991.196 36.15C990.796 35.58 990.466 34.65 990.456 33.79C990.446 33.33 990.546 32.93 990.766 32.55C991.076 32.02 991.646 31.63 992.256 31.62C992.726 31.6 993.146 31.93 993.436 31.93C993.706 31.93 994.226 31.63 994.796 31.62C995.166 31.61 995.686 31.73 996.096 32.36C996.066 32.38 995.286 32.78 995.286 33.71C995.326 34.77 996.266 35.15 996.276 35.15C996.276 35.18 996.156 35.64 995.796 36.15Z" fill="#1D1D1F"/>
</g>
<path d="M974.022 76H975.129L975.979 73.5801H979.342L980.192 76H981.299L978.182 67.5449H977.139L974.022 76ZM977.614 68.9102H977.707L979.032 72.6836H976.289L977.614 68.9102ZM982.533 78.1094H983.552V75.0039H983.646C983.992 75.6777 984.748 76.1113 985.615 76.1113C987.22 76.1113 988.263 74.8281 988.263 72.8477V72.8359C988.263 70.8672 987.214 69.5723 985.615 69.5723C984.736 69.5723 984.033 69.9883 983.646 70.6914H983.552V69.6836H982.533V78.1094ZM985.38 75.209C984.232 75.209 983.529 74.3066 983.529 72.8477V72.8359C983.529 71.377 984.232 70.4746 985.38 70.4746C986.535 70.4746 987.22 71.3652 987.22 72.8359V72.8477C987.22 74.3184 986.535 75.209 985.38 75.209ZM989.737 78.1094H990.756V75.0039H990.85C991.196 75.6777 991.952 76.1113 992.819 76.1113C994.424 76.1113 995.467 74.8281 995.467 72.8477V72.8359C995.467 70.8672 994.419 69.5723 992.819 69.5723C991.94 69.5723 991.237 69.9883 990.85 70.6914H990.756V69.6836H989.737V78.1094ZM992.585 75.209C991.436 75.209 990.733 74.3066 990.733 72.8477V72.8359C990.733 71.377 991.436 70.4746 992.585 70.4746C993.739 70.4746 994.424 71.3652 994.424 72.8359V72.8477C994.424 74.3184 993.739 75.209 992.585 75.209ZM997 76H998.019V67.1758H997V76ZM1002.43 76.1113C1003.92 76.1113 1004.83 75.2676 1005.04 74.4121L1005.05 74.3652H1004.03L1004.01 74.418C1003.84 74.7988 1003.31 75.2031 1002.46 75.2031C1001.33 75.2031 1000.61 74.4414 1000.58 73.1348H1005.13V72.7363C1005.13 70.8496 1004.09 69.5723 1002.37 69.5723C1000.65 69.5723 999.54 70.9082 999.54 72.8594V72.8652C999.54 74.8457 1000.63 76.1113 1002.43 76.1113ZM1002.36 70.4805C1003.3 70.4805 1003.99 71.0723 1004.09 72.3203H1000.6C1000.71 71.1191 1001.43 70.4805 1002.36 70.4805ZM1013.38 76.1992C1015.18 76.1992 1016.51 75.1973 1016.8 73.6504V73.6387H1015.73L1015.72 73.6504C1015.45 74.623 1014.56 75.2266 1013.38 75.2266C1011.75 75.2266 1010.73 73.8965 1010.73 71.7812V71.7695C1010.73 69.6543 1011.75 68.3184 1013.37 68.3184C1014.54 68.3184 1015.44 69.0039 1015.72 70.0879L1015.73 70.0996H1016.79L1016.8 70.0879C1016.54 68.4648 1015.16 67.3457 1013.37 67.3457C1011.08 67.3457 1009.65 69.0449 1009.65 71.7695V71.7812C1009.65 74.5 1011.08 76.1992 1013.38 76.1992ZM1020.05 76.1113C1020.9 76.1113 1021.56 75.7422 1021.96 75.0684H1022.05V76H1023.07V71.6758C1023.07 70.3633 1022.21 69.5723 1020.67 69.5723C1019.32 69.5723 1018.36 70.2402 1018.2 71.2305L1018.19 71.2656H1019.21L1019.22 71.248C1019.38 70.7559 1019.88 70.4746 1020.64 70.4746C1021.58 70.4746 1022.05 70.8965 1022.05 71.6758V72.25L1020.24 72.3613C1018.77 72.4492 1017.94 73.0996 1017.94 74.2246V74.2363C1017.94 75.3848 1018.85 76.1113 1020.05 76.1113ZM1018.98 74.2129V74.2012C1018.98 73.5742 1019.41 73.2344 1020.37 73.1758L1022.05 73.0703V73.6445C1022.05 74.5469 1021.3 75.2266 1020.26 75.2266C1019.53 75.2266 1018.98 74.8516 1018.98 74.2129ZM1024.82 76H1025.84V72.0859C1025.84 71.1602 1026.53 70.5449 1027.5 70.5449C1027.72 70.5449 1027.92 70.5684 1028.13 70.6035V69.6133C1028.03 69.5957 1027.81 69.5723 1027.62 69.5723C1026.76 69.5723 1026.17 69.959 1025.93 70.6211H1025.84V69.6836H1024.82V76ZM1031.42 76.1113C1032.3 76.1113 1033.01 75.6953 1033.39 74.9922H1033.49V76H1034.51V67.1758H1033.49V70.6797H1033.39C1033.05 70.0059 1032.29 69.5723 1031.42 69.5723C1029.82 69.5723 1028.78 70.8555 1028.78 72.8359V72.8477C1028.78 74.8164 1029.82 76.1113 1031.42 76.1113ZM1031.66 75.209C1030.5 75.209 1029.82 74.3184 1029.82 72.8477V72.8359C1029.82 71.3652 1030.5 70.4746 1031.66 70.4746C1032.81 70.4746 1033.51 71.377 1033.51 72.8359V72.8477C1033.51 74.3066 1032.81 75.209 1031.66 75.209Z" fill="#1D1D1F"/>
</g>
<defs>
<clipPath id="clip0_2_3299">
<rect width="1072.49" height="129" fill="white" transform="translate(-50.6123)"/>
</clipPath>
<clipPath id="clip1_2_3299">
<rect width="40" height="54" fill="white" transform="translate(139.153 3)"/>
</clipPath>
<clipPath id="clip2_2_3299">
<rect width="38" height="54" fill="white" transform="translate(245.763 3)"/>
</clipPath>
<clipPath id="clip3_2_3299">
<rect width="36" height="54" fill="white" transform="translate(341.263 3)"/>
</clipPath>
<clipPath id="clip4_2_3299">
<rect width="19" height="54" fill="white" transform="translate(445.028 3)"/>
</clipPath>
<clipPath id="clip5_2_3299">
<rect width="22" height="54" fill="white" transform="translate(538.638 3)"/>
</clipPath>
<clipPath id="clip6_2_3299">
<rect width="45" height="54" fill="white" transform="translate(619.653 3)"/>
</clipPath>
<clipPath id="clip7_2_3299">
<rect width="39" height="54" fill="white" transform="translate(709.81 3)"/>
</clipPath>
<clipPath id="clip8_2_3299">
<rect width="29" height="54" fill="white" transform="translate(794.013 3)"/>
</clipPath>
<clipPath id="clip9_2_3299">
<rect width="40" height="54" fill="white" transform="translate(879.685 3)"/>
</clipPath>
<clipPath id="clip10_2_3299">
<rect width="36" height="54" fill="white" transform="translate(986.466 3)"/>
</clipPath>
</defs>
</svg>
